solid RobotBasis
facet normal 0.0 0.0 -1.0
  outer loop
    vertex 0.0 44.99999999999999 0.0
    vertex 6.101490592425834 21.089139407334148 0.0
    vertex 0.0 0.0 0.0
  endloop
endfacet
facet normal 0.0 0.0 -1.0
  outer loop
    vertex 6.101490592425834 21.089139407334148 0.0
    vertex 0.0 44.99999999999999 0.0
    vertex 19.87223690112419 35.357484866516614 -3.524958103184872e-16
  endloop
endfacet
facet normal 0.0 0.0 -1.0
  outer loop
    vertex 19.87223690112419 35.357484866516614 -3.524958103184872e-16
    vertex 0.0 44.99999999999999 0.0
    vertex 20.664015447468643 35.96503791362943 -3.524958103184872e-16
  endloop
endfacet
facet normal 0.0 0.0 -1.0
  outer loop
    vertex 20.664015447468643 35.96503791362943 -3.524958103184872e-16
    vertex 0.0 44.99999999999999 0.0
    vertex 21.586061093587276 36.346961725378854 -3.524958103184872e-16
  endloop
endfacet
facet normal 0.0 0.0 -1.0
  outer loop
    vertex 21.586061093587276 36.346961725378854 -3.524958103184872e-16
    vertex 0.0 44.99999999999999 0.0
    vertex 44.99999999999999 44.99999999999999 0.0
  endloop
endfacet
facet normal 0.0 0.0 -1.0
  outer loop
    vertex 6.101490592425834 21.089139407334148 0.0
    vertex 19.87223690112419 35.357484866516614 -3.524958103184872e-16
    vertex 19.264683854011242 34.565706320172026 -3.524958103184872e-16
  endloop
endfacet
facet normal 0.0 0.0 -1.0
  outer loop
    vertex 6.101490592425834 21.089139407334148 0.0
    vertex 19.264683854011242 34.565706320172026 -3.524958103184872e-16
    vertex 18.88276004226181 33.64366067405334 -3.524958103184872e-16
  endloop
endfacet
facet normal 0.0 0.0 -1.0
  outer loop
    vertex 6.101490592425834 21.089139407334148 0.0
    vertex 18.88276004226181 33.64366067405334 -3.524958103184872e-16
    vertex 18.752492942487667 32.65418381519101 -3.524958103184872e-16
  endloop
endfacet
facet normal 0.0 0.0 -1.0
  outer loop
    vertex 21.586061093587276 36.346961725378854 -3.524958103184872e-16
    vertex 44.99999999999999 44.99999999999999 0.0
    vertex 22.575537952449622 36.47722882515303 -3.524958103184872e-16
  endloop
endfacet
facet normal 0.0 0.0 -1.0
  outer loop
    vertex 22.575537952449622 36.47722882515303 -3.524958103184872e-16
    vertex 44.99999999999999 44.99999999999999 0.0
    vertex 23.565014811312 36.34696172537887 -3.524958103184872e-16
  endloop
endfacet
facet normal 0.0 0.0 -1.0
  outer loop
    vertex 23.565014811312 36.34696172537887 -3.524958103184872e-16
    vertex 44.99999999999999 44.99999999999999 0.0
    vertex 24.487060457430655 35.96503791362943 -3.524958103184872e-16
  endloop
endfacet
facet normal 0.0 0.0 -1.0
  outer loop
    vertex 24.487060457430655 35.96503791362943 -3.524958103184872e-16
    vertex 44.99999999999999 44.99999999999999 0.0
    vertex 25.278839003775126 35.35748486651659 -3.524958103184872e-16
  endloop
endfacet
facet normal 0.0 0.0 -1.0
  outer loop
    vertex 25.278839003775126 35.35748486651659 -3.524958103184872e-16
    vertex 44.99999999999999 44.99999999999999 0.0
    vertex 25.88639205088807 34.565706320172005 -3.524958103184872e-16
  endloop
endfacet
facet normal 0.0 0.0 -1.0
  outer loop
    vertex 25.88639205088807 34.565706320172005 -3.524958103184872e-16
    vertex 44.99999999999999 44.99999999999999 0.0
    vertex 26.268315862637465 33.64366067405336 -3.524958103184872e-16
  endloop
endfacet
facet normal 0.0 0.0 -1.0
  outer loop
    vertex 26.268315862637465 33.64366067405336 -3.524958103184872e-16
    vertex 44.99999999999999 44.99999999999999 0.0
    vertex 26.39858296241162 32.65418381519107 -3.524958103184872e-16
  endloop
endfacet
facet normal 0.0 0.0 -1.0
  outer loop
    vertex 26.39858296241162 32.65418381519107 -3.524958103184872e-16
    vertex 44.99999999999999 44.99999999999999 0.0
    vertex 38.879247816840724 21.089139407334148 0.0
  endloop
endfacet
facet normal 0.0 0.0 -1.0
  outer loop
    vertex 38.879247816840724 21.089139407334148 0.0
    vertex 44.99999999999999 44.99999999999999 0.0
    vertex 38.879247816840724 0.0 0.0
  endloop
endfacet
facet normal 0.0 0.0 -1.0
  outer loop
    vertex 38.879247816840724 0.0 0.0
    vertex 44.99999999999999 44.99999999999999 0.0
    vertex 44.99999999999999 0.0 0.0
  endloop
endfacet
facet normal 0.0 0.0 -1.0
  outer loop
    vertex 6.101490592425834 21.089139407334148 0.0
    vertex 20.66401544746865 29.343329716752653 -3.524958103184872e-16
    vertex 38.879247816840724 21.089139407334148 0.0
  endloop
endfacet
facet normal 0.0 0.0 -1.0
  outer loop
    vertex 20.66401544746865 29.343329716752653 -3.524958103184872e-16
    vertex 6.101490592425834 21.089139407334148 0.0
    vertex 19.87223690112417 29.950882763865494 -3.524958103184872e-16
  endloop
endfacet
facet normal 0.0 0.0 -1.0
  outer loop
    vertex 19.87223690112417 29.950882763865494 -3.524958103184872e-16
    vertex 6.101490592425834 21.089139407334148 0.0
    vertex 19.264683854011217 30.742661310210092 -3.524958103184872e-16
  endloop
endfacet
facet normal 0.0 0.0 -1.0
  outer loop
    vertex 19.264683854011217 30.742661310210092 -3.524958103184872e-16
    vertex 6.101490592425834 21.089139407334148 0.0
    vertex 18.882760042261822 31.664706956328743 -3.524958103184872e-16
  endloop
endfacet
facet normal 0.0 0.0 -1.0
  outer loop
    vertex 18.882760042261822 31.664706956328743 -3.524958103184872e-16
    vertex 6.101490592425834 21.089139407334148 0.0
    vertex 18.752492942487667 32.65418381519101 -3.524958103184872e-16
  endloop
endfacet
facet normal 0.0 0.0 -1.0
  outer loop
    vertex 38.879247816840724 21.089139407334148 0.0
    vertex 20.66401544746865 29.343329716752653 -3.524958103184872e-16
    vertex 21.586061093587315 28.961405905003218 -3.524958103184872e-16
  endloop
endfacet
facet normal 0.0 0.0 -1.0
  outer loop
    vertex 38.879247816840724 21.089139407334148 0.0
    vertex 21.586061093587315 28.961405905003218 -3.524958103184872e-16
    vertex 22.575537952449658 28.831138805229056 -3.524958103184872e-16
  endloop
endfacet
facet normal 0.0 0.0 -1.0
  outer loop
    vertex 38.879247816840724 21.089139407334148 0.0
    vertex 22.575537952449658 28.831138805229056 -3.524958103184872e-16
    vertex 23.565014811312018 28.961405905003232 -3.524958103184872e-16
  endloop
endfacet
facet normal 0.0 0.0 -1.0
  outer loop
    vertex 38.879247816840724 21.089139407334148 0.0
    vertex 23.565014811312018 28.961405905003232 -3.524958103184872e-16
    vertex 24.487060457430648 29.343329716752656 -3.524958103184872e-16
  endloop
endfacet
facet normal 0.0 0.0 -1.0
  outer loop
    vertex 38.879247816840724 21.089139407334148 0.0
    vertex 24.487060457430648 29.343329716752656 -3.524958103184872e-16
    vertex 25.27883900377511 29.950882763865483 -3.524958103184872e-16
  endloop
endfacet
facet normal 0.0 0.0 -1.0
  outer loop
    vertex 38.879247816840724 21.089139407334148 0.0
    vertex 25.27883900377511 29.950882763865483 -3.524958103184872e-16
    vertex 25.886392050888052 30.742661310210057 -3.524958103184872e-16
  endloop
endfacet
facet normal 0.0 0.0 -1.0
  outer loop
    vertex 38.879247816840724 21.089139407334148 0.0
    vertex 25.886392050888052 30.742661310210057 -3.524958103184872e-16
    vertex 26.268315862637476 31.664706956328732 -3.524958103184872e-16
  endloop
endfacet
facet normal 0.0 0.0 -1.0
  outer loop
    vertex 38.879247816840724 21.089139407334148 0.0
    vertex 26.268315862637476 31.664706956328732 -3.524958103184872e-16
    vertex 26.39858296241162 32.65418381519107 -3.524958103184872e-16
  endloop
endfacet
facet normal 0.0 0.0 -1.0
  outer loop
    vertex 6.101490592425834 0.0 0.0
    vertex 0.0 0.0 0.0
    vertex 6.101490592425834 21.089139407334148 0.0
  endloop
endfacet
facet normal 1.0 -0.0 -0.0
  outer loop
    vertex 44.99999999999999 44.99999999999999 0.0
    vertex 44.99999999999999 0.0 1.9999999999999991
    vertex 44.99999999999999 0.0 0.0
  endloop
endfacet
facet normal 1.0 -0.0 -0.0
  outer loop
    vertex 44.99999999999999 0.0 1.9999999999999991
    vertex 44.99999999999999 44.99999999999999 0.0
    vertex 44.99999999999999 21.089139407334148 11.999999999999996
  endloop
endfacet
facet normal 1.0 -0.0 -0.0
  outer loop
    vertex 44.99999999999999 21.089139407334148 11.999999999999996
    vertex 44.99999999999999 44.99999999999999 0.0
    vertex 44.99999999999999 44.99999999999999 11.999999999999996
  endloop
endfacet
facet normal 0.0 -1.0 0.0
  outer loop
    vertex 6.101490592425834 0.0 1.9999999999999991
    vertex 0.0 0.0 0.0
    vertex 6.101490592425834 0.0 0.0
  endloop
endfacet
facet normal 0.0 -1.0 0.0
  outer loop
    vertex 0.0 0.0 0.0
    vertex 6.101490592425834 0.0 1.9999999999999991
    vertex 0.0 0.0 1.9999999999999991
  endloop
endfacet
facet normal -1.0 0.0 0.0
  outer loop
    vertex 0.0 21.089139407334148 11.999999999999996
    vertex 0.0 0.0 0.0
    vertex 0.0 0.0 1.9999999999999991
  endloop
endfacet
facet normal -1.0 0.0 0.0
  outer loop
    vertex 0.0 0.0 0.0
    vertex 0.0 21.089139407334148 11.999999999999996
    vertex 0.0 44.99999999999999 0.0
  endloop
endfacet
facet normal -1.0 0.0 0.0
  outer loop
    vertex 0.0 44.99999999999999 0.0
    vertex 0.0 21.089139407334148 11.999999999999996
    vertex 0.0 44.99999999999999 11.999999999999996
  endloop
endfacet
facet normal -0.0 1.0 -0.0
  outer loop
    vertex 0.0 44.99999999999999 11.999999999999996
    vertex 44.99999999999999 44.99999999999999 0.0
    vertex 0.0 44.99999999999999 0.0
  endloop
endfacet
facet normal -0.0 1.0 -0.0
  outer loop
    vertex 44.99999999999999 44.99999999999999 0.0
    vertex 0.0 44.99999999999999 11.999999999999996
    vertex 44.99999999999999 44.99999999999999 11.999999999999996
  endloop
endfacet
facet normal 0.0 0.0 1.0
  outer loop
    vertex 24.575537952449643 24.65418381519104 8.999999999999998
    vertex 20.575537952449647 28.654183815191043 8.999999999999998
    vertex 20.575537952449647 24.65418381519104 8.999999999999998
  endloop
endfacet
facet normal 0.0 0.0 1.0
  outer loop
    vertex 20.575537952449647 28.654183815191043 8.999999999999998
    vertex 24.575537952449643 24.65418381519104 8.999999999999998
    vertex 21.95201266627578 32.487110718300364 8.999999999999998
  endloop
endfacet
facet normal 0.0 0.0 1.0
  outer loop
    vertex 20.575537952449647 28.654183815191043 8.999999999999998
    vertex 21.95201266627578 32.487110718300364 8.999999999999998
    vertex 20.575537952449647 36.65418381519104 8.999999999999998
  endloop
endfacet
facet normal 0.0 0.0 1.0
  outer loop
    vertex 20.575537952449647 36.65418381519104 8.999999999999998
    vertex 21.95201266627578 32.487110718300364 8.999999999999998
    vertex 20.575537952449647 41.65418381519104 8.999999999999998
  endloop
endfacet
facet normal 0.0 0.0 1.0
  outer loop
    vertex 20.575537952449647 41.65418381519104 8.999999999999998
    vertex 21.95201266627578 32.487110718300364 8.999999999999998
    vertex 21.93001707579046 32.65418381519104 8.999999999999998
  endloop
endfacet
facet normal 0.0 0.0 1.0
  outer loop
    vertex 21.95201266627578 32.487110718300364 8.999999999999998
    vertex 24.575537952449643 24.65418381519104 8.999999999999998
    vertex 22.016500474589588 32.33142337686145 8.999999999999998
  endloop
endfacet
facet normal 0.0 0.0 1.0
  outer loop
    vertex 22.016500474589588 32.33142337686145 8.999999999999998
    vertex 24.575537952449643 24.65418381519104 8.999999999999998
    vertex 22.119085763166453 32.19773162590784 8.999999999999998
  endloop
endfacet
facet normal 0.0 0.0 1.0
  outer loop
    vertex 22.119085763166453 32.19773162590784 8.999999999999998
    vertex 24.575537952449643 24.65418381519104 8.999999999999998
    vertex 22.252777514120048 32.095146337330995 8.999999999999998
  endloop
endfacet
facet normal 0.0 0.0 1.0
  outer loop
    vertex 22.252777514120048 32.095146337330995 8.999999999999998
    vertex 24.575537952449643 24.65418381519104 8.999999999999998
    vertex 22.408464855558975 32.030658529017174 8.999999999999998
  endloop
endfacet
facet normal 0.0 0.0 1.0
  outer loop
    vertex 22.408464855558975 32.030658529017174 8.999999999999998
    vertex 24.575537952449643 24.65418381519104 8.999999999999998
    vertex 22.57553795244965 32.008662938531856 8.999999999999998
  endloop
endfacet
facet normal 0.0 0.0 1.0
  outer loop
    vertex 22.57553795244965 32.008662938531856 8.999999999999998
    vertex 24.575537952449643 24.65418381519104 8.999999999999998
    vertex 22.742611049340308 32.030658529017174 8.999999999999998
  endloop
endfacet
facet normal 0.0 0.0 1.0
  outer loop
    vertex 22.742611049340308 32.030658529017174 8.999999999999998
    vertex 24.575537952449643 24.65418381519104 8.999999999999998
    vertex 22.89829839077925 32.095146337330995 8.999999999999998
  endloop
endfacet
facet normal 0.0 0.0 1.0
  outer loop
    vertex 22.89829839077925 32.095146337330995 8.999999999999998
    vertex 24.575537952449643 24.65418381519104 8.999999999999998
    vertex 23.031990141732837 32.19773162590784 8.999999999999998
  endloop
endfacet
facet normal 0.0 0.0 1.0
  outer loop
    vertex 23.031990141732837 32.19773162590784 8.999999999999998
    vertex 24.575537952449643 24.65418381519104 8.999999999999998
    vertex 23.134575430309706 32.33142337686145 8.999999999999998
  endloop
endfacet
facet normal 0.0 0.0 1.0
  outer loop
    vertex 23.134575430309706 32.33142337686145 8.999999999999998
    vertex 24.575537952449643 24.65418381519104 8.999999999999998
    vertex 23.199063238623516 32.487110718300364 8.999999999999998
  endloop
endfacet
facet normal 0.0 0.0 1.0
  outer loop
    vertex 23.199063238623516 32.487110718300364 8.999999999999998
    vertex 24.575537952449643 24.65418381519104 8.999999999999998
    vertex 23.22105882910883 32.65418381519104 8.999999999999998
  endloop
endfacet
facet normal 0.0 0.0 1.0
  outer loop
    vertex 40.57553795244964 28.654183815191043 8.999999999999998
    vertex 24.575537952449643 36.65418381519104 8.999999999999998
    vertex 24.575537952449643 28.654183815191043 8.999999999999998
  endloop
endfacet
facet normal 0.0 0.0 1.0
  outer loop
    vertex 24.575537952449643 36.65418381519104 8.999999999999998
    vertex 40.57553795244964 28.654183815191043 8.999999999999998
    vertex 40.57553795244964 36.65418381519104 8.999999999999998
  endloop
endfacet
facet normal 0.0 0.0 1.0
  outer loop
    vertex 20.575537952449647 41.65418381519104 8.999999999999998
    vertex 21.952012666275778 32.821256912081715 8.999999999999998
    vertex 24.575537952449643 41.65418381519104 8.999999999999998
  endloop
endfacet
facet normal 0.0 0.0 1.0
  outer loop
    vertex 21.952012666275778 32.821256912081715 8.999999999999998
    vertex 20.575537952449647 41.65418381519104 8.999999999999998
    vertex 21.93001707579046 32.65418381519104 8.999999999999998
  endloop
endfacet
facet normal 0.0 0.0 1.0
  outer loop
    vertex 24.575537952449643 41.65418381519104 8.999999999999998
    vertex 21.952012666275778 32.821256912081715 8.999999999999998
    vertex 22.016500474589588 32.97694425352063 8.999999999999998
  endloop
endfacet
facet normal 0.0 0.0 1.0
  outer loop
    vertex 24.575537952449643 41.65418381519104 8.999999999999998
    vertex 22.016500474589588 32.97694425352063 8.999999999999998
    vertex 22.119085763166453 33.110636004474244 8.999999999999998
  endloop
endfacet
facet normal 0.0 0.0 1.0
  outer loop
    vertex 24.575537952449643 41.65418381519104 8.999999999999998
    vertex 22.119085763166453 33.110636004474244 8.999999999999998
    vertex 22.252777514120044 33.213221293051085 8.999999999999998
  endloop
endfacet
facet normal 0.0 0.0 1.0
  outer loop
    vertex 24.575537952449643 41.65418381519104 8.999999999999998
    vertex 22.252777514120044 33.213221293051085 8.999999999999998
    vertex 22.408464855558986 33.27770910136491 8.999999999999998
  endloop
endfacet
facet normal 0.0 0.0 1.0
  outer loop
    vertex 24.575537952449643 41.65418381519104 8.999999999999998
    vertex 22.408464855558986 33.27770910136491 8.999999999999998
    vertex 22.57553795244964 33.29970469185023 8.999999999999998
  endloop
endfacet
facet normal 0.0 0.0 1.0
  outer loop
    vertex 24.575537952449643 41.65418381519104 8.999999999999998
    vertex 22.57553795244964 33.29970469185023 8.999999999999998
    vertex 22.74261104934032 33.27770910136491 8.999999999999998
  endloop
endfacet
facet normal 0.0 0.0 1.0
  outer loop
    vertex 24.575537952449643 41.65418381519104 8.999999999999998
    vertex 22.74261104934032 33.27770910136491 8.999999999999998
    vertex 22.898298390779242 33.21322129305109 8.999999999999998
  endloop
endfacet
facet normal 0.0 0.0 1.0
  outer loop
    vertex 24.575537952449643 41.65418381519104 8.999999999999998
    vertex 22.898298390779242 33.21322129305109 8.999999999999998
    vertex 23.031990141732837 33.110636004474244 8.999999999999998
  endloop
endfacet
facet normal 0.0 0.0 1.0
  outer loop
    vertex 24.575537952449643 41.65418381519104 8.999999999999998
    vertex 23.031990141732837 33.110636004474244 8.999999999999998
    vertex 23.134575430309706 32.97694425352063 8.999999999999998
  endloop
endfacet
facet normal 0.0 0.0 1.0
  outer loop
    vertex 24.575537952449643 41.65418381519104 8.999999999999998
    vertex 23.134575430309706 32.97694425352063 8.999999999999998
    vertex 23.199063238623513 32.821256912081715 8.999999999999998
  endloop
endfacet
facet normal 0.0 0.0 1.0
  outer loop
    vertex 24.575537952449643 41.65418381519104 8.999999999999998
    vertex 23.199063238623513 32.821256912081715 8.999999999999998
    vertex 23.22105882910883 32.65418381519104 8.999999999999998
  endloop
endfacet
facet normal 0.0 0.0 1.0
  outer loop
    vertex 24.575537952449643 41.65418381519104 8.999999999999998
    vertex 23.22105882910883 32.65418381519104 8.999999999999998
    vertex 24.575537952449643 24.65418381519104 8.999999999999998
  endloop
endfacet
facet normal 0.0 0.0 1.0
  outer loop
    vertex 24.575537952449643 41.65418381519104 8.999999999999998
    vertex 24.575537952449643 24.65418381519104 8.999999999999998
    vertex 24.575537952449643 28.654183815191043 8.999999999999998
  endloop
endfacet
facet normal 0.0 0.0 1.0
  outer loop
    vertex 24.575537952449643 41.65418381519104 8.999999999999998
    vertex 24.575537952449643 28.654183815191043 8.999999999999998
    vertex 24.575537952449643 36.65418381519104 8.999999999999998
  endloop
endfacet
facet normal 0.0 0.0 1.0
  outer loop
    vertex 20.575537952449647 28.654183815191043 8.999999999999998
    vertex 4.575537952449645 36.65418381519104 8.999999999999998
    vertex 4.575537952449645 28.654183815191043 8.999999999999998
  endloop
endfacet
facet normal 0.0 0.0 1.0
  outer loop
    vertex 4.575537952449645 36.65418381519104 8.999999999999998
    vertex 20.575537952449647 28.654183815191043 8.999999999999998
    vertex 20.575537952449647 36.65418381519104 8.999999999999998
  endloop
endfacet
facet normal 0.0 1.0 0.0
  outer loop
    vertex 24.575537952449643 28.654183815191043 11.999999999999996
    vertex 40.57553795244964 28.654183815191043 8.999999999999998
    vertex 24.575537952449643 28.654183815191043 8.999999999999998
  endloop
endfacet
facet normal 0.0 1.0 0.0
  outer loop
    vertex 40.57553795244964 28.654183815191043 8.999999999999998
    vertex 24.575537952449643 28.654183815191043 11.999999999999996
    vertex 40.57553795244964 28.654183815191043 11.999999999999996
  endloop
endfacet
facet normal -1.0 -0.0 -0.0
  outer loop
    vertex 24.575537952449643 28.654183815191043 11.999999999999996
    vertex 24.575537952449643 24.65418381519104 8.999999999999998
    vertex 24.575537952449643 24.65418381519104 11.999999999999996
  endloop
endfacet
facet normal -1.0 -0.0 -0.0
  outer loop
    vertex 24.575537952449643 24.65418381519104 8.999999999999998
    vertex 24.575537952449643 28.654183815191043 11.999999999999996
    vertex 24.575537952449643 28.654183815191043 8.999999999999998
  endloop
endfacet
facet normal 0.0 1.0 0.0
  outer loop
    vertex 20.575537952449647 24.65418381519104 11.999999999999996
    vertex 24.575537952449643 24.65418381519104 8.999999999999998
    vertex 20.575537952449647 24.65418381519104 8.999999999999998
  endloop
endfacet
facet normal 0.0 1.0 0.0
  outer loop
    vertex 24.575537952449643 24.65418381519104 8.999999999999998
    vertex 20.575537952449647 24.65418381519104 11.999999999999996
    vertex 24.575537952449643 24.65418381519104 11.999999999999996
  endloop
endfacet
facet normal 1.0 -0.0 0.0
  outer loop
    vertex 20.575537952449647 28.654183815191043 8.999999999999998
    vertex 20.575537952449647 24.65418381519104 11.999999999999996
    vertex 20.575537952449647 24.65418381519104 8.999999999999998
  endloop
endfacet
facet normal 1.0 -0.0 0.0
  outer loop
    vertex 20.575537952449647 24.65418381519104 11.999999999999996
    vertex 20.575537952449647 28.654183815191043 8.999999999999998
    vertex 20.575537952449647 28.654183815191043 11.999999999999996
  endloop
endfacet
facet normal 0.0 1.0 0.0
  outer loop
    vertex 4.575537952449645 28.654183815191043 11.999999999999996
    vertex 20.575537952449647 28.654183815191043 8.999999999999998
    vertex 4.575537952449645 28.654183815191043 8.999999999999998
  endloop
endfacet
facet normal 0.0 1.0 0.0
  outer loop
    vertex 20.575537952449647 28.654183815191043 8.999999999999998
    vertex 4.575537952449645 28.654183815191043 11.999999999999996
    vertex 20.575537952449647 28.654183815191043 11.999999999999996
  endloop
endfacet
facet normal 1.0 -0.0 0.0
  outer loop
    vertex 4.575537952449645 36.65418381519104 8.999999999999998
    vertex 4.575537952449645 28.654183815191043 11.999999999999996
    vertex 4.575537952449645 28.654183815191043 8.999999999999998
  endloop
endfacet
facet normal 1.0 -0.0 0.0
  outer loop
    vertex 4.575537952449645 28.654183815191043 11.999999999999996
    vertex 4.575537952449645 36.65418381519104 8.999999999999998
    vertex 4.575537952449645 36.65418381519104 11.999999999999996
  endloop
endfacet
facet normal 0.0 -1.0 0.0
  outer loop
    vertex 20.575537952449647 36.65418381519104 11.999999999999996
    vertex 4.575537952449645 36.65418381519104 8.999999999999998
    vertex 20.575537952449647 36.65418381519104 8.999999999999998
  endloop
endfacet
facet normal 0.0 -1.0 0.0
  outer loop
    vertex 4.575537952449645 36.65418381519104 8.999999999999998
    vertex 20.575537952449647 36.65418381519104 11.999999999999996
    vertex 4.575537952449645 36.65418381519104 11.999999999999996
  endloop
endfacet
facet normal 1.0 -0.0 0.0
  outer loop
    vertex 20.575537952449647 41.65418381519104 8.999999999999998
    vertex 20.575537952449647 36.65418381519104 11.999999999999996
    vertex 20.575537952449647 36.65418381519104 8.999999999999998
  endloop
endfacet
facet normal 1.0 -0.0 0.0
  outer loop
    vertex 20.575537952449647 36.65418381519104 11.999999999999996
    vertex 20.575537952449647 41.65418381519104 8.999999999999998
    vertex 20.575537952449647 41.65418381519104 11.999999999999996
  endloop
endfacet
facet normal 0.0 -1.0 0.0
  outer loop
    vertex 24.575537952449643 41.65418381519104 11.999999999999996
    vertex 20.575537952449647 41.65418381519104 8.999999999999998
    vertex 24.575537952449643 41.65418381519104 8.999999999999998
  endloop
endfacet
facet normal 0.0 -1.0 0.0
  outer loop
    vertex 20.575537952449647 41.65418381519104 8.999999999999998
    vertex 24.575537952449643 41.65418381519104 11.999999999999996
    vertex 20.575537952449647 41.65418381519104 11.999999999999996
  endloop
endfacet
facet normal -1.0 -0.0 -0.0
  outer loop
    vertex 24.575537952449643 41.65418381519104 11.999999999999996
    vertex 24.575537952449643 36.65418381519104 8.999999999999998
    vertex 24.575537952449643 36.65418381519104 11.999999999999996
  endloop
endfacet
facet normal -1.0 -0.0 -0.0
  outer loop
    vertex 24.575537952449643 36.65418381519104 8.999999999999998
    vertex 24.575537952449643 41.65418381519104 11.999999999999996
    vertex 24.575537952449643 41.65418381519104 8.999999999999998
  endloop
endfacet
facet normal 0.0 -1.0 0.0
  outer loop
    vertex 40.57553795244964 36.65418381519104 11.999999999999996
    vertex 24.575537952449643 36.65418381519104 8.999999999999998
    vertex 40.57553795244964 36.65418381519104 8.999999999999998
  endloop
endfacet
facet normal 0.0 -1.0 0.0
  outer loop
    vertex 24.575537952449643 36.65418381519104 8.999999999999998
    vertex 40.57553795244964 36.65418381519104 11.999999999999996
    vertex 24.575537952449643 36.65418381519104 11.999999999999996
  endloop
endfacet
facet normal -1.0 -0.0 -0.0
  outer loop
    vertex 40.57553795244964 36.65418381519104 11.999999999999996
    vertex 40.57553795244964 28.654183815191043 8.999999999999998
    vertex 40.57553795244964 28.654183815191043 11.999999999999996
  endloop
endfacet
facet normal -1.0 -0.0 -0.0
  outer loop
    vertex 40.57553795244964 28.654183815191043 8.999999999999998
    vertex 40.57553795244964 36.65418381519104 11.999999999999996
    vertex 40.57553795244964 36.65418381519104 8.999999999999998
  endloop
endfacet
facet normal 0.4999999999999991 0.866025403784439 0.0
  outer loop
    vertex 22.252777514120048 32.095146337330995 8.999999999999998
    vertex 22.408464855558975 32.030658529017174 6.999999999999998
    vertex 22.252777514120048 32.095146337330995 6.999999999999998
  endloop
endfacet
facet normal 0.25881904510253106 0.9659258262890655 0.0
  outer loop
    vertex 22.408464855558975 32.030658529017174 6.999999999999998
    vertex 22.252777514120048 32.095146337330995 8.999999999999998
    vertex 22.408464855558975 32.030658529017174 8.999999999999998
  endloop
endfacet
facet normal 0.25881904510253106 0.9659258262890655 0.0
  outer loop
    vertex 22.408464855558975 32.030658529017174 8.999999999999998
    vertex 22.57553795244965 32.008662938531856 6.999999999999998
    vertex 22.408464855558975 32.030658529017174 6.999999999999998
  endloop
endfacet
facet normal -7.645732290465053e-15 1.0 0.0
  outer loop
    vertex 22.57553795244965 32.008662938531856 6.999999999999998
    vertex 22.408464855558975 32.030658529017174 8.999999999999998
    vertex 22.57553795244965 32.008662938531856 8.999999999999998
  endloop
endfacet
facet normal -7.645732290465053e-15 1.0 0.0
  outer loop
    vertex 22.57553795244965 32.008662938531856 8.999999999999998
    vertex 22.742611049340308 32.030658529017174 6.999999999999998
    vertex 22.57553795244965 32.008662938531856 6.999999999999998
  endloop
endfacet
facet normal -0.2588190451025379 0.9659258262890636 0.0
  outer loop
    vertex 22.742611049340308 32.030658529017174 6.999999999999998
    vertex 22.57553795244965 32.008662938531856 8.999999999999998
    vertex 22.742611049340308 32.030658529017174 8.999999999999998
  endloop
endfacet
facet normal -0.2588190451025379 0.9659258262890636 0.0
  outer loop
    vertex 22.742611049340308 32.030658529017174 8.999999999999998
    vertex 22.89829839077925 32.095146337330995 6.999999999999998
    vertex 22.742611049340308 32.030658529017174 6.999999999999998
  endloop
endfacet
facet normal -0.49999999999999617 0.8660254037844409 0.0
  outer loop
    vertex 22.89829839077925 32.095146337330995 6.999999999999998
    vertex 22.742611049340308 32.030658529017174 8.999999999999998
    vertex 22.89829839077925 32.095146337330995 8.999999999999998
  endloop
endfacet
facet normal -0.49999999999999617 0.8660254037844409 0.0
  outer loop
    vertex 22.89829839077925 32.095146337330995 8.999999999999998
    vertex 23.031990141732837 32.19773162590784 6.999999999999998
    vertex 22.89829839077925 32.095146337330995 6.999999999999998
  endloop
endfacet
facet normal -0.7071067811865387 0.7071067811865562 0.0
  outer loop
    vertex 23.031990141732837 32.19773162590784 6.999999999999998
    vertex 22.89829839077925 32.095146337330995 8.999999999999998
    vertex 23.031990141732837 32.19773162590784 8.999999999999998
  endloop
endfacet
facet normal -0.8660254037844379 0.500000000000001 0.0
  outer loop
    vertex 23.134575430309706 32.33142337686145 8.999999999999998
    vertex 23.031990141732837 32.19773162590784 6.999999999999998
    vertex 23.031990141732837 32.19773162590784 8.999999999999998
  endloop
endfacet
facet normal -0.7071067811865387 0.7071067811865562 0.0
  outer loop
    vertex 23.031990141732837 32.19773162590784 6.999999999999998
    vertex 23.134575430309706 32.33142337686145 8.999999999999998
    vertex 23.134575430309706 32.33142337686145 6.999999999999998
  endloop
endfacet
facet normal -0.9659258262890695 0.2588190451025161 0.0
  outer loop
    vertex 23.199063238623516 32.487110718300364 8.999999999999998
    vertex 23.134575430309706 32.33142337686145 6.999999999999998
    vertex 23.134575430309706 32.33142337686145 8.999999999999998
  endloop
endfacet
facet normal -0.8660254037844379 0.500000000000001 0.0
  outer loop
    vertex 23.134575430309706 32.33142337686145 6.999999999999998
    vertex 23.199063238623516 32.487110718300364 8.999999999999998
    vertex 23.199063238623516 32.487110718300364 6.999999999999998
  endloop
endfacet
facet normal -1.0 -8.296243312847262e-15 0.0
  outer loop
    vertex 23.22105882910883 32.65418381519104 8.999999999999998
    vertex 23.199063238623516 32.487110718300364 6.999999999999998
    vertex 23.199063238623516 32.487110718300364 8.999999999999998
  endloop
endfacet
facet normal -0.9659258262890695 0.2588190451025161 0.0
  outer loop
    vertex 23.199063238623516 32.487110718300364 6.999999999999998
    vertex 23.22105882910883 32.65418381519104 8.999999999999998
    vertex 23.22105882910883 32.65418381519104 6.999999999999998
  endloop
endfacet
facet normal -0.9659258262890694 -0.2588190451025167 0.0
  outer loop
    vertex 23.199063238623513 32.821256912081715 8.999999999999998
    vertex 23.22105882910883 32.65418381519104 6.999999999999998
    vertex 23.22105882910883 32.65418381519104 8.999999999999998
  endloop
endfacet
facet normal -1.0 -8.296243312847262e-15 0.0
  outer loop
    vertex 23.22105882910883 32.65418381519104 6.999999999999998
    vertex 23.199063238623513 32.821256912081715 8.999999999999998
    vertex 23.199063238623513 32.821256912081715 6.999999999999998
  endloop
endfacet
facet normal -0.8660254037844419 -0.4999999999999944 0.0
  outer loop
    vertex 23.134575430309706 32.97694425352063 8.999999999999998
    vertex 23.199063238623513 32.821256912081715 6.999999999999998
    vertex 23.199063238623513 32.821256912081715 8.999999999999998
  endloop
endfacet
facet normal -0.9659258262890694 -0.2588190451025167 0.0
  outer loop
    vertex 23.199063238623513 32.821256912081715 6.999999999999998
    vertex 23.134575430309706 32.97694425352063 8.999999999999998
    vertex 23.134575430309706 32.97694425352063 6.999999999999998
  endloop
endfacet
facet normal -0.7071067811865409 -0.7071067811865541 0.0
  outer loop
    vertex 23.031990141732837 33.110636004474244 8.999999999999998
    vertex 23.134575430309706 32.97694425352063 6.999999999999998
    vertex 23.134575430309706 32.97694425352063 8.999999999999998
  endloop
endfacet
facet normal -0.8660254037844419 -0.4999999999999944 0.0
  outer loop
    vertex 23.134575430309706 32.97694425352063 6.999999999999998
    vertex 23.031990141732837 33.110636004474244 8.999999999999998
    vertex 23.031990141732837 33.110636004474244 6.999999999999998
  endloop
endfacet
facet normal -0.7071067811865409 -0.7071067811865541 0.0
  outer loop
    vertex 23.031990141732837 33.110636004474244 8.999999999999998
    vertex 22.898298390779242 33.21322129305109 6.999999999999998
    vertex 23.031990141732837 33.110636004474244 6.999999999999998
  endloop
endfacet
facet normal -0.5000000000000019 -0.8660254037844375 0.0
  outer loop
    vertex 22.898298390779242 33.21322129305109 6.999999999999998
    vertex 23.031990141732837 33.110636004474244 8.999999999999998
    vertex 22.898298390779242 33.21322129305109 8.999999999999998
  endloop
endfacet
facet normal -0.5000000000000019 -0.8660254037844375 0.0
  outer loop
    vertex 22.898298390779242 33.21322129305109 8.999999999999998
    vertex 22.74261104934032 33.27770910136491 6.999999999999998
    vertex 22.898298390779242 33.21322129305109 6.999999999999998
  endloop
endfacet
facet normal -0.2588190451025331 -0.9659258262890651 0.0
  outer loop
    vertex 22.74261104934032 33.27770910136491 6.999999999999998
    vertex 22.898298390779242 33.21322129305109 8.999999999999998
    vertex 22.74261104934032 33.27770910136491 8.999999999999998
  endloop
endfacet
facet normal -0.2588190451025331 -0.9659258262890651 0.0
  outer loop
    vertex 22.74261104934032 33.27770910136491 8.999999999999998
    vertex 22.57553795244964 33.29970469185023 6.999999999999998
    vertex 22.74261104934032 33.27770910136491 6.999999999999998
  endloop
endfacet
facet normal 8.732887697733975e-15 -1.0 0.0
  outer loop
    vertex 22.57553795244964 33.29970469185023 6.999999999999998
    vertex 22.74261104934032 33.27770910136491 8.999999999999998
    vertex 22.57553795244964 33.29970469185023 8.999999999999998
  endloop
endfacet
facet normal 8.732887697733975e-15 -1.0 0.0
  outer loop
    vertex 22.57553795244964 33.29970469185023 8.999999999999998
    vertex 22.408464855558986 33.27770910136491 6.999999999999998
    vertex 22.57553795244964 33.29970469185023 6.999999999999998
  endloop
endfacet
facet normal 0.2588190451025379 -0.9659258262890636 0.0
  outer loop
    vertex 22.408464855558986 33.27770910136491 6.999999999999998
    vertex 22.57553795244964 33.29970469185023 8.999999999999998
    vertex 22.408464855558986 33.27770910136491 8.999999999999998
  endloop
endfacet
facet normal 0.2588190451025379 -0.9659258262890636 0.0
  outer loop
    vertex 22.408464855558986 33.27770910136491 8.999999999999998
    vertex 22.252777514120044 33.213221293051085 6.999999999999998
    vertex 22.408464855558986 33.27770910136491 6.999999999999998
  endloop
endfacet
facet normal 0.49999999999999617 -0.8660254037844409 0.0
  outer loop
    vertex 22.252777514120044 33.213221293051085 6.999999999999998
    vertex 22.408464855558986 33.27770910136491 8.999999999999998
    vertex 22.252777514120044 33.213221293051085 8.999999999999998
  endloop
endfacet
facet normal 0.49999999999999617 -0.8660254037844409 0.0
  outer loop
    vertex 22.252777514120044 33.213221293051085 8.999999999999998
    vertex 22.119085763166453 33.110636004474244 6.999999999999998
    vertex 22.252777514120044 33.213221293051085 6.999999999999998
  endloop
endfacet
facet normal 0.7071067811865387 -0.7071067811865562 0.0
  outer loop
    vertex 22.119085763166453 33.110636004474244 6.999999999999998
    vertex 22.252777514120044 33.213221293051085 8.999999999999998
    vertex 22.119085763166453 33.110636004474244 8.999999999999998
  endloop
endfacet
facet normal 0.7071067811865387 -0.7071067811865562 0.0
  outer loop
    vertex 22.119085763166453 33.110636004474244 6.999999999999998
    vertex 22.016500474589588 32.97694425352063 8.999999999999998
    vertex 22.016500474589588 32.97694425352063 6.999999999999998
  endloop
endfacet
facet normal 0.8660254037844379 -0.500000000000001 0.0
  outer loop
    vertex 22.016500474589588 32.97694425352063 8.999999999999998
    vertex 22.119085763166453 33.110636004474244 6.999999999999998
    vertex 22.119085763166453 33.110636004474244 8.999999999999998
  endloop
endfacet
facet normal 0.8660254037844379 -0.500000000000001 0.0
  outer loop
    vertex 22.016500474589588 32.97694425352063 6.999999999999998
    vertex 21.952012666275778 32.821256912081715 8.999999999999998
    vertex 21.952012666275778 32.821256912081715 6.999999999999998
  endloop
endfacet
facet normal 0.9659258262890695 -0.2588190451025161 0.0
  outer loop
    vertex 21.952012666275778 32.821256912081715 8.999999999999998
    vertex 22.016500474589588 32.97694425352063 6.999999999999998
    vertex 22.016500474589588 32.97694425352063 8.999999999999998
  endloop
endfacet
facet normal 0.9659258262890695 -0.2588190451025161 0.0
  outer loop
    vertex 21.952012666275778 32.821256912081715 6.999999999999998
    vertex 21.93001707579046 32.65418381519104 8.999999999999998
    vertex 21.93001707579046 32.65418381519104 6.999999999999998
  endloop
endfacet
facet normal 1.0 8.296243312847262e-15 0.0
  outer loop
    vertex 21.93001707579046 32.65418381519104 8.999999999999998
    vertex 21.952012666275778 32.821256912081715 6.999999999999998
    vertex 21.952012666275778 32.821256912081715 8.999999999999998
  endloop
endfacet
facet normal 1.0 8.296243312847262e-15 0.0
  outer loop
    vertex 21.93001707579046 32.65418381519104 6.999999999999998
    vertex 21.95201266627578 32.487110718300364 8.999999999999998
    vertex 21.95201266627578 32.487110718300364 6.999999999999998
  endloop
endfacet
facet normal 0.9659258262890694 0.2588190451025167 0.0
  outer loop
    vertex 21.95201266627578 32.487110718300364 8.999999999999998
    vertex 21.93001707579046 32.65418381519104 6.999999999999998
    vertex 21.93001707579046 32.65418381519104 8.999999999999998
  endloop
endfacet
facet normal 0.9659258262890694 0.2588190451025167 0.0
  outer loop
    vertex 21.95201266627578 32.487110718300364 6.999999999999998
    vertex 22.016500474589588 32.33142337686145 8.999999999999998
    vertex 22.016500474589588 32.33142337686145 6.999999999999998
  endloop
endfacet
facet normal 0.8660254037844419 0.4999999999999944 0.0
  outer loop
    vertex 22.016500474589588 32.33142337686145 8.999999999999998
    vertex 21.95201266627578 32.487110718300364 6.999999999999998
    vertex 21.95201266627578 32.487110718300364 8.999999999999998
  endloop
endfacet
facet normal 0.8660254037844419 0.4999999999999944 0.0
  outer loop
    vertex 22.016500474589588 32.33142337686145 6.999999999999998
    vertex 22.119085763166453 32.19773162590784 8.999999999999998
    vertex 22.119085763166453 32.19773162590784 6.999999999999998
  endloop
endfacet
facet normal 0.7071067811865409 0.7071067811865541 0.0
  outer loop
    vertex 22.119085763166453 32.19773162590784 8.999999999999998
    vertex 22.016500474589588 32.33142337686145 6.999999999999998
    vertex 22.016500474589588 32.33142337686145 8.999999999999998
  endloop
endfacet
facet normal 0.7071067811865409 0.7071067811865541 0.0
  outer loop
    vertex 22.119085763166453 32.19773162590784 8.999999999999998
    vertex 22.252777514120048 32.095146337330995 6.999999999999998
    vertex 22.119085763166453 32.19773162590784 6.999999999999998
  endloop
endfacet
facet normal 0.4999999999999991 0.866025403784439 0.0
  outer loop
    vertex 22.252777514120048 32.095146337330995 6.999999999999998
    vertex 22.119085763166453 32.19773162590784 8.999999999999998
    vertex 22.252777514120048 32.095146337330995 8.999999999999998
  endloop
endfacet
facet normal -1.0 0.0 0.0
  outer loop
    vertex 38.879247816840724 21.089139407334148 1.9999999999999991
    vertex 38.879247816840724 0.0 0.0
    vertex 38.879247816840724 0.0 1.9999999999999991
  endloop
endfacet
facet normal -1.0 0.0 0.0
  outer loop
    vertex 38.879247816840724 0.0 0.0
    vertex 38.879247816840724 21.089139407334148 1.9999999999999991
    vertex 38.879247816840724 21.089139407334148 0.0
  endloop
endfacet
facet normal -0.0 -1.0 -0.0
  outer loop
    vertex 38.879247816840724 21.089139407334148 1.9999999999999991
    vertex 6.101490592425834 21.089139407334148 0.0
    vertex 38.879247816840724 21.089139407334148 0.0
  endloop
endfacet
facet normal -0.0 -1.0 -0.0
  outer loop
    vertex 6.101490592425834 21.089139407334148 0.0
    vertex 38.879247816840724 21.089139407334148 1.9999999999999991
    vertex 6.101490592425834 21.089139407334148 1.9999999999999991
  endloop
endfacet
facet normal -0.0 -1.0 -0.0
  outer loop
    vertex 6.101490592425834 21.089139407334148 1.9999999999999991
    vertex 38.879247816840724 21.089139407334148 1.9999999999999991
    vertex 38.879247816840724 21.089139407334148 11.999999999999996
  endloop
endfacet
facet normal -0.0 -1.0 -0.0
  outer loop
    vertex 6.101490592425834 21.089139407334148 1.9999999999999991
    vertex 38.879247816840724 21.089139407334148 11.999999999999996
    vertex 6.101490592425834 21.089139407334148 11.999999999999996
  endloop
endfacet
facet normal 1.0 -0.0 -0.0
  outer loop
    vertex 6.101490592425834 21.089139407334148 0.0
    vertex 6.101490592425834 0.0 1.9999999999999991
    vertex 6.101490592425834 0.0 0.0
  endloop
endfacet
facet normal 1.0 -0.0 -0.0
  outer loop
    vertex 6.101490592425834 0.0 1.9999999999999991
    vertex 6.101490592425834 21.089139407334148 0.0
    vertex 6.101490592425834 21.089139407334148 1.9999999999999991
  endloop
endfacet
facet normal 0.0 -1.0 0.0
  outer loop
    vertex 44.99999999999999 0.0 1.9999999999999991
    vertex 38.879247816840724 0.0 0.0
    vertex 44.99999999999999 0.0 0.0
  endloop
endfacet
facet normal 0.0 -1.0 0.0
  outer loop
    vertex 38.879247816840724 0.0 0.0
    vertex 44.99999999999999 0.0 1.9999999999999991
    vertex 38.879247816840724 0.0 1.9999999999999991
  endloop
endfacet
facet normal -1.0 0.0 0.0
  outer loop
    vertex 38.879247816840724 21.089139407334148 1.9999999999999991
    vertex 38.879247816840724 0.0 1.9999999999999991
    vertex 38.879247816840724 21.089139407334148 11.999999999999996
  endloop
endfacet
facet normal 1.0 -0.0 -0.0
  outer loop
    vertex 6.101490592425834 21.089139407334148 11.999999999999996
    vertex 6.101490592425834 0.0 1.9999999999999991
    vertex 6.101490592425834 21.089139407334148 1.9999999999999991
  endloop
endfacet
facet normal -0.0 -0.4284505085502389 0.9035652503959201
  outer loop
    vertex 6.101490592425834 0.0 1.9999999999999991
    vertex 0.0 21.089139407334148 11.999999999999996
    vertex 0.0 0.0 1.9999999999999991
  endloop
endfacet
facet normal -0.0 -0.4284505085502389 0.9035652503959201
  outer loop
    vertex 0.0 21.089139407334148 11.999999999999996
    vertex 6.101490592425834 0.0 1.9999999999999991
    vertex 6.101490592425834 21.089139407334148 11.999999999999996
  endloop
endfacet
facet normal -0.0 -0.0 1.0
  outer loop
    vertex 40.57553795244964 36.65418381519104 11.999999999999996
    vertex 24.575537952449643 41.65418381519104 11.999999999999996
    vertex 24.575537952449643 36.65418381519104 11.999999999999996
  endloop
endfacet
facet normal -0.0 -0.0 1.0
  outer loop
    vertex 38.879247816840724 21.089139407334148 11.999999999999996
    vertex 20.575537952449647 24.65418381519104 11.999999999999996
    vertex 6.101490592425834 21.089139407334148 11.999999999999996
  endloop
endfacet
facet normal -0.0 -0.0 1.0
  outer loop
    vertex 20.575537952449647 24.65418381519104 11.999999999999996
    vertex 38.879247816840724 21.089139407334148 11.999999999999996
    vertex 24.575537952449643 24.65418381519104 11.999999999999996
  endloop
endfacet
facet normal -0.0 -0.0 1.0
  outer loop
    vertex 24.575537952449643 24.65418381519104 11.999999999999996
    vertex 38.879247816840724 21.089139407334148 11.999999999999996
    vertex 24.575537952449643 28.654183815191043 11.999999999999996
  endloop
endfacet
facet normal -0.0 -0.0 1.0
  outer loop
    vertex 24.575537952449643 28.654183815191043 11.999999999999996
    vertex 38.879247816840724 21.089139407334148 11.999999999999996
    vertex 40.57553795244964 28.654183815191043 11.999999999999996
  endloop
endfacet
facet normal -0.0 -0.0 1.0
  outer loop
    vertex 40.57553795244964 28.654183815191043 11.999999999999996
    vertex 38.879247816840724 21.089139407334148 11.999999999999996
    vertex 44.99999999999999 21.089139407334148 11.999999999999996
  endloop
endfacet
facet normal -0.0 -0.0 1.0
  outer loop
    vertex 40.57553795244964 28.654183815191043 11.999999999999996
    vertex 44.99999999999999 21.089139407334148 11.999999999999996
    vertex 40.57553795244964 36.65418381519104 11.999999999999996
  endloop
endfacet
facet normal -0.0 -0.0 1.0
  outer loop
    vertex 0.0 44.99999999999999 11.999999999999996
    vertex 20.575537952449647 41.65418381519104 11.999999999999996
    vertex 44.99999999999999 44.99999999999999 11.999999999999996
  endloop
endfacet
facet normal -0.0 -0.0 1.0
  outer loop
    vertex 20.575537952449647 41.65418381519104 11.999999999999996
    vertex 0.0 44.99999999999999 11.999999999999996
    vertex 4.575537952449645 36.65418381519104 11.999999999999996
  endloop
endfacet
facet normal -0.0 -0.0 1.0
  outer loop
    vertex 4.575537952449645 36.65418381519104 11.999999999999996
    vertex 0.0 44.99999999999999 11.999999999999996
    vertex 4.575537952449645 28.654183815191043 11.999999999999996
  endloop
endfacet
facet normal -0.0 -0.0 1.0
  outer loop
    vertex 20.575537952449647 41.65418381519104 11.999999999999996
    vertex 4.575537952449645 36.65418381519104 11.999999999999996
    vertex 20.575537952449647 36.65418381519104 11.999999999999996
  endloop
endfacet
facet normal -0.0 -0.0 1.0
  outer loop
    vertex 44.99999999999999 44.99999999999999 11.999999999999996
    vertex 20.575537952449647 41.65418381519104 11.999999999999996
    vertex 24.575537952449643 41.65418381519104 11.999999999999996
  endloop
endfacet
facet normal -0.0 -0.0 1.0
  outer loop
    vertex 44.99999999999999 44.99999999999999 11.999999999999996
    vertex 24.575537952449643 41.65418381519104 11.999999999999996
    vertex 40.57553795244964 36.65418381519104 11.999999999999996
  endloop
endfacet
facet normal -0.0 -0.0 1.0
  outer loop
    vertex 44.99999999999999 44.99999999999999 11.999999999999996
    vertex 40.57553795244964 36.65418381519104 11.999999999999996
    vertex 44.99999999999999 21.089139407334148 11.999999999999996
  endloop
endfacet
facet normal -0.0 -0.0 1.0
  outer loop
    vertex 6.101490592425834 21.089139407334148 11.999999999999996
    vertex 0.0 44.99999999999999 11.999999999999996
    vertex 0.0 21.089139407334148 11.999999999999996
  endloop
endfacet
facet normal -0.0 -0.0 1.0
  outer loop
    vertex 0.0 44.99999999999999 11.999999999999996
    vertex 6.101490592425834 21.089139407334148 11.999999999999996
    vertex 4.575537952449645 28.654183815191043 11.999999999999996
  endloop
endfacet
facet normal -0.0 -0.0 1.0
  outer loop
    vertex 4.575537952449645 28.654183815191043 11.999999999999996
    vertex 6.101490592425834 21.089139407334148 11.999999999999996
    vertex 20.575537952449647 28.654183815191043 11.999999999999996
  endloop
endfacet
facet normal -0.0 -0.0 1.0
  outer loop
    vertex 20.575537952449647 28.654183815191043 11.999999999999996
    vertex 6.101490592425834 21.089139407334148 11.999999999999996
    vertex 20.575537952449647 24.65418381519104 11.999999999999996
  endloop
endfacet
facet normal 1.9179523836393271e-31 -0.4284505085502389 0.9035652503959201
  outer loop
    vertex 44.99999999999999 0.0 1.9999999999999991
    vertex 38.879247816840724 21.089139407334148 11.999999999999996
    vertex 38.879247816840724 0.0 1.9999999999999991
  endloop
endfacet
facet normal 1.9179523836393271e-31 -0.4284505085502389 0.9035652503959201
  outer loop
    vertex 38.879247816840724 21.089139407334148 11.999999999999996
    vertex 44.99999999999999 0.0 1.9999999999999991
    vertex 44.99999999999999 21.089139407334148 11.999999999999996
  endloop
endfacet
facet normal -6.801098794819745e-32 -9.068131726426317e-32 -1.0
  outer loop
    vertex 18.88276004226181 33.64366067405334 6.999999999999998
    vertex 18.882760042261822 31.664706956328743 6.999999999999998
    vertex 18.752492942487667 32.65418381519101 6.999999999999998
  endloop
endfacet
facet normal -6.801098794819745e-32 -9.068131726426317e-32 -1.0
  outer loop
    vertex 18.882760042261822 31.664706956328743 6.999999999999998
    vertex 18.88276004226181 33.64366067405334 6.999999999999998
    vertex 19.264683854011242 34.565706320172026 6.999999999999998
  endloop
endfacet
facet normal -6.801098794819745e-32 -9.068131726426317e-32 -1.0
  outer loop
    vertex 18.882760042261822 31.664706956328743 6.999999999999998
    vertex 19.264683854011242 34.565706320172026 6.999999999999998
    vertex 19.264683854011217 30.742661310210092 6.999999999999998
  endloop
endfacet
facet normal -6.801098794819745e-32 -9.068131726426317e-32 -1.0
  outer loop
    vertex 19.264683854011217 30.742661310210092 6.999999999999998
    vertex 19.264683854011242 34.565706320172026 6.999999999999998
    vertex 19.87223690112417 29.950882763865494 6.999999999999998
  endloop
endfacet
facet normal -6.801098794819745e-32 -9.068131726426317e-32 -1.0
  outer loop
    vertex 19.87223690112417 29.950882763865494 6.999999999999998
    vertex 19.264683854011242 34.565706320172026 6.999999999999998
    vertex 19.87223690112419 35.357484866516614 6.999999999999998
  endloop
endfacet
facet normal -6.801098794819745e-32 -9.068131726426317e-32 -1.0
  outer loop
    vertex 19.87223690112417 29.950882763865494 6.999999999999998
    vertex 19.87223690112419 35.357484866516614 6.999999999999998
    vertex 20.66401544746865 29.343329716752653 6.999999999999998
  endloop
endfacet
facet normal -6.801098794819745e-32 -9.068131726426317e-32 -1.0
  outer loop
    vertex 20.66401544746865 29.343329716752653 6.999999999999998
    vertex 19.87223690112419 35.357484866516614 6.999999999999998
    vertex 20.664015447468643 35.96503791362943 6.999999999999998
  endloop
endfacet
facet normal -6.801098794819745e-32 -9.068131726426317e-32 -1.0
  outer loop
    vertex 20.66401544746865 29.343329716752653 6.999999999999998
    vertex 20.664015447468643 35.96503791362943 6.999999999999998
    vertex 21.586061093587276 36.346961725378854 6.999999999999998
  endloop
endfacet
facet normal -6.801098794819745e-32 -9.068131726426317e-32 -1.0
  outer loop
    vertex 20.66401544746865 29.343329716752653 6.999999999999998
    vertex 21.586061093587276 36.346961725378854 6.999999999999998
    vertex 21.586061093587315 28.961405905003218 6.999999999999998
  endloop
endfacet
facet normal -6.801098794819745e-32 -9.068131726426317e-32 -1.0
  outer loop
    vertex 21.586061093587315 28.961405905003218 6.999999999999998
    vertex 21.586061093587276 36.346961725378854 6.999999999999998
    vertex 21.93001707579046 32.65418381519104 6.999999999999998
  endloop
endfacet
facet normal -6.801098794819745e-32 -9.068131726426317e-32 -1.0
  outer loop
    vertex 21.93001707579046 32.65418381519104 6.999999999999998
    vertex 21.586061093587276 36.346961725378854 6.999999999999998
    vertex 21.952012666275778 32.821256912081715 6.999999999999998
  endloop
endfacet
facet normal -6.801098794819745e-32 -9.068131726426317e-32 -1.0
  outer loop
    vertex 21.952012666275778 32.821256912081715 6.999999999999998
    vertex 21.586061093587276 36.346961725378854 6.999999999999998
    vertex 22.575537952449622 36.47722882515303 6.999999999999998
  endloop
endfacet
facet normal -6.801098794819745e-32 -9.068131726426317e-32 -1.0
  outer loop
    vertex 21.952012666275778 32.821256912081715 6.999999999999998
    vertex 22.575537952449622 36.47722882515303 6.999999999999998
    vertex 22.016500474589588 32.97694425352063 6.999999999999998
  endloop
endfacet
facet normal -6.801098794819745e-32 -9.068131726426317e-32 -1.0
  outer loop
    vertex 22.016500474589588 32.97694425352063 6.999999999999998
    vertex 22.575537952449622 36.47722882515303 6.999999999999998
    vertex 22.119085763166453 33.110636004474244 6.999999999999998
  endloop
endfacet
facet normal -6.801098794819745e-32 -9.068131726426317e-32 -1.0
  outer loop
    vertex 22.119085763166453 33.110636004474244 6.999999999999998
    vertex 22.575537952449622 36.47722882515303 6.999999999999998
    vertex 22.252777514120044 33.213221293051085 6.999999999999998
  endloop
endfacet
facet normal -6.801098794819745e-32 -9.068131726426317e-32 -1.0
  outer loop
    vertex 22.252777514120044 33.213221293051085 6.999999999999998
    vertex 22.575537952449622 36.47722882515303 6.999999999999998
    vertex 22.408464855558986 33.27770910136491 6.999999999999998
  endloop
endfacet
facet normal -6.801098794819745e-32 -9.068131726426317e-32 -1.0
  outer loop
    vertex 22.408464855558986 33.27770910136491 6.999999999999998
    vertex 22.575537952449622 36.47722882515303 6.999999999999998
    vertex 22.57553795244964 33.29970469185023 6.999999999999998
  endloop
endfacet
facet normal -6.801098794819745e-32 -9.068131726426317e-32 -1.0
  outer loop
    vertex 22.57553795244964 33.29970469185023 6.999999999999998
    vertex 22.575537952449622 36.47722882515303 6.999999999999998
    vertex 23.565014811312 36.34696172537887 6.999999999999998
  endloop
endfacet
facet normal -6.801098794819745e-32 -9.068131726426317e-32 -1.0
  outer loop
    vertex 22.57553795244964 33.29970469185023 6.999999999999998
    vertex 23.565014811312 36.34696172537887 6.999999999999998
    vertex 22.74261104934032 33.27770910136491 6.999999999999998
  endloop
endfacet
facet normal -6.801098794819745e-32 -9.068131726426317e-32 -1.0
  outer loop
    vertex 22.74261104934032 33.27770910136491 6.999999999999998
    vertex 23.565014811312 36.34696172537887 6.999999999999998
    vertex 22.898298390779242 33.21322129305109 6.999999999999998
  endloop
endfacet
facet normal -6.801098794819745e-32 -9.068131726426317e-32 -1.0
  outer loop
    vertex 22.898298390779242 33.21322129305109 6.999999999999998
    vertex 23.565014811312 36.34696172537887 6.999999999999998
    vertex 23.031990141732837 33.110636004474244 6.999999999999998
  endloop
endfacet
facet normal -6.801098794819745e-32 -9.068131726426317e-32 -1.0
  outer loop
    vertex 23.031990141732837 33.110636004474244 6.999999999999998
    vertex 23.565014811312 36.34696172537887 6.999999999999998
    vertex 23.134575430309706 32.97694425352063 6.999999999999998
  endloop
endfacet
facet normal -6.801098794819745e-32 -9.068131726426317e-32 -1.0
  outer loop
    vertex 23.134575430309706 32.97694425352063 6.999999999999998
    vertex 23.565014811312 36.34696172537887 6.999999999999998
    vertex 23.199063238623513 32.821256912081715 6.999999999999998
  endloop
endfacet
facet normal -6.801098794819745e-32 -9.068131726426317e-32 -1.0
  outer loop
    vertex 23.199063238623513 32.821256912081715 6.999999999999998
    vertex 23.565014811312 36.34696172537887 6.999999999999998
    vertex 23.22105882910883 32.65418381519104 6.999999999999998
  endloop
endfacet
facet normal -6.801098794819745e-32 -9.068131726426317e-32 -1.0
  outer loop
    vertex 21.586061093587315 28.961405905003218 6.999999999999998
    vertex 21.95201266627578 32.487110718300364 6.999999999999998
    vertex 22.575537952449658 28.831138805229056 6.999999999999998
  endloop
endfacet
facet normal -6.801098794819745e-32 -9.068131726426317e-32 -1.0
  outer loop
    vertex 21.95201266627578 32.487110718300364 6.999999999999998
    vertex 21.586061093587315 28.961405905003218 6.999999999999998
    vertex 21.93001707579046 32.65418381519104 6.999999999999998
  endloop
endfacet
facet normal -6.801098794819745e-32 -9.068131726426317e-32 -1.0
  outer loop
    vertex 22.575537952449658 28.831138805229056 6.999999999999998
    vertex 21.95201266627578 32.487110718300364 6.999999999999998
    vertex 22.016500474589588 32.33142337686145 6.999999999999998
  endloop
endfacet
facet normal -6.801098794819745e-32 -9.068131726426317e-32 -1.0
  outer loop
    vertex 22.575537952449658 28.831138805229056 6.999999999999998
    vertex 22.016500474589588 32.33142337686145 6.999999999999998
    vertex 22.119085763166453 32.19773162590784 6.999999999999998
  endloop
endfacet
facet normal -6.801098794819745e-32 -9.068131726426317e-32 -1.0
  outer loop
    vertex 22.575537952449658 28.831138805229056 6.999999999999998
    vertex 22.119085763166453 32.19773162590784 6.999999999999998
    vertex 22.252777514120048 32.095146337330995 6.999999999999998
  endloop
endfacet
facet normal -6.801098794819745e-32 -9.068131726426317e-32 -1.0
  outer loop
    vertex 22.575537952449658 28.831138805229056 6.999999999999998
    vertex 22.252777514120048 32.095146337330995 6.999999999999998
    vertex 22.408464855558975 32.030658529017174 6.999999999999998
  endloop
endfacet
facet normal -6.801098794819745e-32 -9.068131726426317e-32 -1.0
  outer loop
    vertex 22.575537952449658 28.831138805229056 6.999999999999998
    vertex 22.408464855558975 32.030658529017174 6.999999999999998
    vertex 22.57553795244965 32.008662938531856 6.999999999999998
  endloop
endfacet
facet normal -6.801098794819745e-32 -9.068131726426317e-32 -1.0
  outer loop
    vertex 22.575537952449658 28.831138805229056 6.999999999999998
    vertex 22.57553795244965 32.008662938531856 6.999999999999998
    vertex 22.742611049340308 32.030658529017174 6.999999999999998
  endloop
endfacet
facet normal -6.801098794819745e-32 -9.068131726426317e-32 -1.0
  outer loop
    vertex 22.575537952449658 28.831138805229056 6.999999999999998
    vertex 22.742611049340308 32.030658529017174 6.999999999999998
    vertex 23.565014811312018 28.961405905003232 6.999999999999998
  endloop
endfacet
facet normal -6.801098794819745e-32 -9.068131726426317e-32 -1.0
  outer loop
    vertex 23.565014811312018 28.961405905003232 6.999999999999998
    vertex 22.742611049340308 32.030658529017174 6.999999999999998
    vertex 22.89829839077925 32.095146337330995 6.999999999999998
  endloop
endfacet
facet normal -6.801098794819745e-32 -9.068131726426317e-32 -1.0
  outer loop
    vertex 23.565014811312018 28.961405905003232 6.999999999999998
    vertex 22.89829839077925 32.095146337330995 6.999999999999998
    vertex 23.031990141732837 32.19773162590784 6.999999999999998
  endloop
endfacet
facet normal -6.801098794819745e-32 -9.068131726426317e-32 -1.0
  outer loop
    vertex 23.565014811312018 28.961405905003232 6.999999999999998
    vertex 23.031990141732837 32.19773162590784 6.999999999999998
    vertex 23.134575430309706 32.33142337686145 6.999999999999998
  endloop
endfacet
facet normal -6.801098794819745e-32 -9.068131726426317e-32 -1.0
  outer loop
    vertex 23.565014811312018 28.961405905003232 6.999999999999998
    vertex 23.134575430309706 32.33142337686145 6.999999999999998
    vertex 23.199063238623516 32.487110718300364 6.999999999999998
  endloop
endfacet
facet normal -6.801098794819745e-32 -9.068131726426317e-32 -1.0
  outer loop
    vertex 23.565014811312018 28.961405905003232 6.999999999999998
    vertex 23.199063238623516 32.487110718300364 6.999999999999998
    vertex 23.22105882910883 32.65418381519104 6.999999999999998
  endloop
endfacet
facet normal -6.801098794819745e-32 -9.068131726426317e-32 -1.0
  outer loop
    vertex 23.565014811312018 28.961405905003232 6.999999999999998
    vertex 23.22105882910883 32.65418381519104 6.999999999999998
    vertex 23.565014811312 36.34696172537887 6.999999999999998
  endloop
endfacet
facet normal -6.801098794819745e-32 -9.068131726426317e-32 -1.0
  outer loop
    vertex 23.565014811312018 28.961405905003232 6.999999999999998
    vertex 23.565014811312 36.34696172537887 6.999999999999998
    vertex 24.487060457430655 35.96503791362943 6.999999999999998
  endloop
endfacet
facet normal -6.801098794819745e-32 -9.068131726426317e-32 -1.0
  outer loop
    vertex 23.565014811312018 28.961405905003232 6.999999999999998
    vertex 24.487060457430655 35.96503791362943 6.999999999999998
    vertex 24.487060457430648 29.343329716752656 6.999999999999998
  endloop
endfacet
facet normal -6.801098794819745e-32 -9.068131726426317e-32 -1.0
  outer loop
    vertex 24.487060457430648 29.343329716752656 6.999999999999998
    vertex 24.487060457430655 35.96503791362943 6.999999999999998
    vertex 25.27883900377511 29.950882763865483 6.999999999999998
  endloop
endfacet
facet normal -6.801098794819745e-32 -9.068131726426317e-32 -1.0
  outer loop
    vertex 25.27883900377511 29.950882763865483 6.999999999999998
    vertex 24.487060457430655 35.96503791362943 6.999999999999998
    vertex 25.278839003775126 35.35748486651659 6.999999999999998
  endloop
endfacet
facet normal -6.801098794819745e-32 -9.068131726426317e-32 -1.0
  outer loop
    vertex 25.27883900377511 29.950882763865483 6.999999999999998
    vertex 25.278839003775126 35.35748486651659 6.999999999999998
    vertex 25.886392050888052 30.742661310210057 6.999999999999998
  endloop
endfacet
facet normal -6.801098794819745e-32 -9.068131726426317e-32 -1.0
  outer loop
    vertex 25.886392050888052 30.742661310210057 6.999999999999998
    vertex 25.278839003775126 35.35748486651659 6.999999999999998
    vertex 25.88639205088807 34.565706320172005 6.999999999999998
  endloop
endfacet
facet normal -6.801098794819745e-32 -9.068131726426317e-32 -1.0
  outer loop
    vertex 25.886392050888052 30.742661310210057 6.999999999999998
    vertex 25.88639205088807 34.565706320172005 6.999999999999998
    vertex 26.268315862637476 31.664706956328732 6.999999999999998
  endloop
endfacet
facet normal -6.801098794819745e-32 -9.068131726426317e-32 -1.0
  outer loop
    vertex 26.268315862637476 31.664706956328732 6.999999999999998
    vertex 25.88639205088807 34.565706320172005 6.999999999999998
    vertex 26.268315862637465 33.64366067405336 6.999999999999998
  endloop
endfacet
facet normal -6.801098794819745e-32 -9.068131726426317e-32 -1.0
  outer loop
    vertex 26.268315862637476 31.664706956328732 6.999999999999998
    vertex 26.268315862637465 33.64366067405336 6.999999999999998
    vertex 26.39858296241162 32.65418381519107 6.999999999999998
  endloop
endfacet
facet normal 0.8660254037844425 0.4999999999999934 0.0
  outer loop
    vertex 19.264683854011217 30.742661310210092 -3.524958103184872e-16
    vertex 19.87223690112417 29.950882763865494 6.999999999999998
    vertex 19.87223690112417 29.950882763865494 -3.524958103184872e-16
  endloop
endfacet
facet normal 0.7071067811865411 0.7071067811865538 0.0
  outer loop
    vertex 19.87223690112417 29.950882763865494 6.999999999999998
    vertex 19.264683854011217 30.742661310210092 -3.524958103184872e-16
    vertex 19.264683854011217 30.742661310210092 6.999999999999998
  endloop
endfacet
facet normal 0.9659258262890694 0.2588190451025169 0.0
  outer loop
    vertex 18.882760042261822 31.664706956328743 -3.524958103184872e-16
    vertex 19.264683854011217 30.742661310210092 6.999999999999998
    vertex 19.264683854011217 30.742661310210092 -3.524958103184872e-16
  endloop
endfacet
facet normal 0.8660254037844425 0.4999999999999934 0.0
  outer loop
    vertex 19.264683854011217 30.742661310210092 6.999999999999998
    vertex 18.882760042261822 31.664706956328743 -3.524958103184872e-16
    vertex 18.882760042261822 31.664706956328743 6.999999999999998
  endloop
endfacet
facet normal 1.0 9.000220994603369e-15 0.0
  outer loop
    vertex 18.752492942487667 32.65418381519101 -3.524958103184872e-16
    vertex 18.882760042261822 31.664706956328743 6.999999999999998
    vertex 18.882760042261822 31.664706956328743 -3.524958103184872e-16
  endloop
endfacet
facet normal 0.9659258262890694 0.2588190451025169 0.0
  outer loop
    vertex 18.882760042261822 31.664706956328743 6.999999999999998
    vertex 18.752492942487667 32.65418381519101 -3.524958103184872e-16
    vertex 18.752492942487667 32.65418381519101 6.999999999999998
  endloop
endfacet
facet normal 0.9659258262890691 -0.2588190451025181 0.0
  outer loop
    vertex 18.88276004226181 33.64366067405334 -3.524958103184872e-16
    vertex 18.752492942487667 32.65418381519101 6.999999999999998
    vertex 18.752492942487667 32.65418381519101 -3.524958103184872e-16
  endloop
endfacet
facet normal 1.0 9.000220994603369e-15 0.0
  outer loop
    vertex 18.752492942487667 32.65418381519101 6.999999999999998
    vertex 18.88276004226181 33.64366067405334 -3.524958103184872e-16
    vertex 18.88276004226181 33.64366067405334 6.999999999999998
  endloop
endfacet
facet normal 0.8660254037844374 -0.5000000000000024 0.0
  outer loop
    vertex 19.264683854011242 34.565706320172026 -3.524958103184872e-16
    vertex 18.88276004226181 33.64366067405334 6.999999999999998
    vertex 18.88276004226181 33.64366067405334 -3.524958103184872e-16
  endloop
endfacet
facet normal 0.9659258262890691 -0.2588190451025181 0.0
  outer loop
    vertex 18.88276004226181 33.64366067405334 6.999999999999998
    vertex 19.264683854011242 34.565706320172026 -3.524958103184872e-16
    vertex 19.264683854011242 34.565706320172026 6.999999999999998
  endloop
endfacet
facet normal 0.707106781186538 -0.707106781186557 0.0
  outer loop
    vertex 19.87223690112419 35.357484866516614 -3.524958103184872e-16
    vertex 19.264683854011242 34.565706320172026 6.999999999999998
    vertex 19.264683854011242 34.565706320172026 -3.524958103184872e-16
  endloop
endfacet
facet normal 0.8660254037844374 -0.5000000000000024 0.0
  outer loop
    vertex 19.264683854011242 34.565706320172026 6.999999999999998
    vertex 19.87223690112419 35.357484866516614 -3.524958103184872e-16
    vertex 19.87223690112419 35.357484866516614 6.999999999999998
  endloop
endfacet
facet normal 0.4999999999999964 -0.8660254037844407 0.0
  outer loop
    vertex 20.664015447468643 35.96503791362943 6.999999999999998
    vertex 19.87223690112419 35.357484866516614 -3.524958103184872e-16
    vertex 20.664015447468643 35.96503791362943 -3.524958103184872e-16
  endloop
endfacet
facet normal 0.707106781186538 -0.707106781186557 0.0
  outer loop
    vertex 19.87223690112419 35.357484866516614 -3.524958103184872e-16
    vertex 20.664015447468643 35.96503791362943 6.999999999999998
    vertex 19.87223690112419 35.357484866516614 6.999999999999998
  endloop
endfacet
facet normal 0.2588190451025403 -0.965925826289063 0.0
  outer loop
    vertex 21.586061093587276 36.346961725378854 6.999999999999998
    vertex 20.664015447468643 35.96503791362943 -3.524958103184872e-16
    vertex 21.586061093587276 36.346961725378854 -3.524958103184872e-16
  endloop
endfacet
facet normal 0.4999999999999964 -0.8660254037844407 0.0
  outer loop
    vertex 20.664015447468643 35.96503791362943 -3.524958103184872e-16
    vertex 21.586061093587276 36.346961725378854 6.999999999999998
    vertex 20.664015447468643 35.96503791362943 6.999999999999998
  endloop
endfacet
facet normal 1.0791354083628413e-14 -1.0 0.0
  outer loop
    vertex 22.575537952449622 36.47722882515303 6.999999999999998
    vertex 21.586061093587276 36.346961725378854 -3.524958103184872e-16
    vertex 22.575537952449622 36.47722882515303 -3.524958103184872e-16
  endloop
endfacet
facet normal 0.2588190451025403 -0.965925826289063 0.0
  outer loop
    vertex 21.586061093587276 36.346961725378854 -3.524958103184872e-16
    vertex 22.575537952449622 36.47722882515303 6.999999999999998
    vertex 21.586061093587276 36.346961725378854 6.999999999999998
  endloop
endfacet
facet normal -0.25881904510253123 -0.9659258262890654 0.0
  outer loop
    vertex 23.565014811312 36.34696172537887 6.999999999999998
    vertex 22.575537952449622 36.47722882515303 -3.524958103184872e-16
    vertex 23.565014811312 36.34696172537887 -3.524958103184872e-16
  endloop
endfacet
facet normal 1.0791354083628413e-14 -1.0 0.0
  outer loop
    vertex 22.575537952449622 36.47722882515303 -3.524958103184872e-16
    vertex 23.565014811312 36.34696172537887 6.999999999999998
    vertex 22.575537952449622 36.47722882515303 6.999999999999998
  endloop
endfacet
facet normal -0.5000000000000029 -0.866025403784437 0.0
  outer loop
    vertex 24.487060457430655 35.96503791362943 6.999999999999998
    vertex 23.565014811312 36.34696172537887 -3.524958103184872e-16
    vertex 24.487060457430655 35.96503791362943 -3.524958103184872e-16
  endloop
endfacet
facet normal -0.25881904510253123 -0.9659258262890654 0.0
  outer loop
    vertex 23.565014811312 36.34696172537887 -3.524958103184872e-16
    vertex 24.487060457430655 35.96503791362943 6.999999999999998
    vertex 23.565014811312 36.34696172537887 6.999999999999998
  endloop
endfacet
facet normal -0.7071067811865432 -0.7071067811865519 0.0
  outer loop
    vertex 25.278839003775126 35.35748486651659 6.999999999999998
    vertex 24.487060457430655 35.96503791362943 -3.524958103184872e-16
    vertex 25.278839003775126 35.35748486651659 -3.524958103184872e-16
  endloop
endfacet
facet normal -0.5000000000000029 -0.866025403784437 0.0
  outer loop
    vertex 24.487060457430655 35.96503791362943 -3.524958103184872e-16
    vertex 25.278839003775126 35.35748486651659 6.999999999999998
    vertex 24.487060457430655 35.96503791362943 6.999999999999998
  endloop
endfacet
facet normal -0.7071067811865432 -0.7071067811865519 0.0
  outer loop
    vertex 25.278839003775126 35.35748486651659 6.999999999999998
    vertex 25.88639205088807 34.565706320172005 -3.524958103184872e-16
    vertex 25.88639205088807 34.565706320172005 6.999999999999998
  endloop
endfacet
facet normal -0.8660254037844426 -0.4999999999999933 0.0
  outer loop
    vertex 25.88639205088807 34.565706320172005 -3.524958103184872e-16
    vertex 25.278839003775126 35.35748486651659 6.999999999999998
    vertex 25.278839003775126 35.35748486651659 -3.524958103184872e-16
  endloop
endfacet
facet normal -0.8660254037844426 -0.4999999999999933 0.0
  outer loop
    vertex 25.88639205088807 34.565706320172005 6.999999999999998
    vertex 26.268315862637465 33.64366067405336 -3.524958103184872e-16
    vertex 26.268315862637465 33.64366067405336 6.999999999999998
  endloop
endfacet
facet normal -0.9659258262890692 -0.25881904510251746 0.0
  outer loop
    vertex 26.268315862637465 33.64366067405336 -3.524958103184872e-16
    vertex 25.88639205088807 34.565706320172005 6.999999999999998
    vertex 25.88639205088807 34.565706320172005 -3.524958103184872e-16
  endloop
endfacet
facet normal -0.9659258262890692 -0.25881904510251746 0.0
  outer loop
    vertex 26.268315862637465 33.64366067405336 6.999999999999998
    vertex 26.39858296241162 32.65418381519107 -3.524958103184872e-16
    vertex 26.39858296241162 32.65418381519107 6.999999999999998
  endloop
endfacet
facet normal -1.0 -8.180398884203853e-15 0.0
  outer loop
    vertex 26.39858296241162 32.65418381519107 -3.524958103184872e-16
    vertex 26.268315862637465 33.64366067405336 6.999999999999998
    vertex 26.268315862637465 33.64366067405336 -3.524958103184872e-16
  endloop
endfacet
facet normal -1.0 -8.180398884203853e-15 0.0
  outer loop
    vertex 26.39858296241162 32.65418381519107 6.999999999999998
    vertex 26.268315862637476 31.664706956328732 -3.524958103184872e-16
    vertex 26.268315862637476 31.664706956328732 6.999999999999998
  endloop
endfacet
facet normal -0.9659258262890694 0.258819045102517 0.0
  outer loop
    vertex 26.268315862637476 31.664706956328732 -3.524958103184872e-16
    vertex 26.39858296241162 32.65418381519107 6.999999999999998
    vertex 26.39858296241162 32.65418381519107 -3.524958103184872e-16
  endloop
endfacet
facet normal -0.9659258262890694 0.258819045102517 0.0
  outer loop
    vertex 26.268315862637476 31.664706956328732 6.999999999999998
    vertex 25.886392050888052 30.742661310210057 -3.524958103184872e-16
    vertex 25.886392050888052 30.742661310210057 6.999999999999998
  endloop
endfacet
facet normal -0.8660254037844375 0.500000000000002 0.0
  outer loop
    vertex 25.886392050888052 30.742661310210057 -3.524958103184872e-16
    vertex 26.268315862637476 31.664706956328732 6.999999999999998
    vertex 26.268315862637476 31.664706956328732 -3.524958103184872e-16
  endloop
endfacet
facet normal -0.8660254037844375 0.500000000000002 0.0
  outer loop
    vertex 25.886392050888052 30.742661310210057 6.999999999999998
    vertex 25.27883900377511 29.950882763865483 -3.524958103184872e-16
    vertex 25.27883900377511 29.950882763865483 6.999999999999998
  endloop
endfacet
facet normal -0.7071067811865385 0.7071067811865565 0.0
  outer loop
    vertex 25.27883900377511 29.950882763865483 -3.524958103184872e-16
    vertex 25.886392050888052 30.742661310210057 6.999999999999998
    vertex 25.886392050888052 30.742661310210057 -3.524958103184872e-16
  endloop
endfacet
facet normal -0.4999999999999985 0.8660254037844396 0.0
  outer loop
    vertex 24.487060457430648 29.343329716752656 6.999999999999998
    vertex 25.27883900377511 29.950882763865483 -3.524958103184872e-16
    vertex 24.487060457430648 29.343329716752656 -3.524958103184872e-16
  endloop
endfacet
facet normal -0.7071067811865385 0.7071067811865565 0.0
  outer loop
    vertex 25.27883900377511 29.950882763865483 -3.524958103184872e-16
    vertex 24.487060457430648 29.343329716752656 6.999999999999998
    vertex 25.27883900377511 29.950882763865483 6.999999999999998
  endloop
endfacet
facet normal -0.2588190451025398 0.9659258262890632 0.0
  outer loop
    vertex 23.565014811312018 28.961405905003232 6.999999999999998
    vertex 24.487060457430648 29.343329716752656 -3.524958103184872e-16
    vertex 23.565014811312018 28.961405905003232 -3.524958103184872e-16
  endloop
endfacet
facet normal -0.4999999999999985 0.8660254037844396 0.0
  outer loop
    vertex 24.487060457430648 29.343329716752656 -3.524958103184872e-16
    vertex 23.565014811312018 28.961405905003232 6.999999999999998
    vertex 24.487060457430648 29.343329716752656 6.999999999999998
  endloop
endfacet
facet normal -7.30711011443047e-15 1.0 0.0
  outer loop
    vertex 22.575537952449658 28.831138805229056 6.999999999999998
    vertex 23.565014811312018 28.961405905003232 -3.524958103184872e-16
    vertex 22.575537952449658 28.831138805229056 -3.524958103184872e-16
  endloop
endfacet
facet normal -0.2588190451025398 0.9659258262890632 0.0
  outer loop
    vertex 23.565014811312018 28.961405905003232 -3.524958103184872e-16
    vertex 22.575537952449658 28.831138805229056 6.999999999999998
    vertex 23.565014811312018 28.961405905003232 6.999999999999998
  endloop
endfacet
facet normal 0.25881904510253145 0.9659258262890654 0.0
  outer loop
    vertex 21.586061093587315 28.961405905003218 6.999999999999998
    vertex 22.575537952449658 28.831138805229056 -3.524958103184872e-16
    vertex 21.586061093587315 28.961405905003218 -3.524958103184872e-16
  endloop
endfacet
facet normal -7.30711011443047e-15 1.0 0.0
  outer loop
    vertex 22.575537952449658 28.831138805229056 -3.524958103184872e-16
    vertex 21.586061093587315 28.961405905003218 6.999999999999998
    vertex 22.575537952449658 28.831138805229056 6.999999999999998
  endloop
endfacet
facet normal 0.4999999999999995 0.8660254037844389 0.0
  outer loop
    vertex 20.66401544746865 29.343329716752653 6.999999999999998
    vertex 21.586061093587315 28.961405905003218 -3.524958103184872e-16
    vertex 20.66401544746865 29.343329716752653 -3.524958103184872e-16
  endloop
endfacet
facet normal 0.25881904510253145 0.9659258262890654 0.0
  outer loop
    vertex 21.586061093587315 28.961405905003218 -3.524958103184872e-16
    vertex 20.66401544746865 29.343329716752653 6.999999999999998
    vertex 21.586061093587315 28.961405905003218 6.999999999999998
  endloop
endfacet
facet normal 0.7071067811865411 0.7071067811865538 0.0
  outer loop
    vertex 19.87223690112417 29.950882763865494 6.999999999999998
    vertex 20.66401544746865 29.343329716752653 -3.524958103184872e-16
    vertex 19.87223690112417 29.950882763865494 -3.524958103184872e-16
  endloop
endfacet
facet normal 0.4999999999999995 0.8660254037844389 0.0
  outer loop
    vertex 20.66401544746865 29.343329716752653 -3.524958103184872e-16
    vertex 19.87223690112417 29.950882763865494 6.999999999999998
    vertex 20.66401544746865 29.343329716752653 6.999999999999998
  endloop
endfacet
endsolid RobotBasis
