solid StepperPointer
facet normal 0.0 0.0 -1.0
  outer loop
    vertex 0.0 3.9999999999999996 0.0
    vertex 0.0 0.0 0.0
    vertex -4.000000000000001 1.9999999999999998 0.0
  endloop
endfacet
facet normal 0.0 0.0 -1.0
  outer loop
    vertex 0.0 0.0 0.0
    vertex 0.0 3.9999999999999996 0.0
    vertex 34.36895508790872 3.9999999999999996 0.0
  endloop
endfacet
facet normal 0.0 0.0 -1.0
  outer loop
    vertex 0.0 0.0 0.0
    vertex 34.36895508790872 3.9999999999999996 0.0
    vertex 8.358403208724244 9.20676694284949e-18 0.0
  endloop
endfacet
facet normal 0.0 0.0 -1.0
  outer loop
    vertex 8.358403208724244 9.20676694284949e-18 0.0
    vertex 34.36895508790872 3.9999999999999996 0.0
    vertex 14.358403208724246 9.20676694284949e-18 0.0
  endloop
endfacet
facet normal 0.0 0.0 -1.0
  outer loop
    vertex 8.358403208724244 9.20676694284949e-18 0.0
    vertex 14.358403208724246 9.20676694284949e-18 0.0
    vertex 11.358403208724246 -1.9999999999999998 0.0
  endloop
endfacet
facet normal 0.0 0.0 -1.0
  outer loop
    vertex 14.358403208724246 9.20676694284949e-18 0.0
    vertex 34.36895508790872 3.9999999999999996 0.0
    vertex 34.35840320872425 2.203098814490545e-17 0.0
  endloop
endfacet
facet normal 0.0 0.0 -1.0
  outer loop
    vertex 40.37572418084711 9.819177197685683 9.999999999999998
    vertex 39.5670159803874 3.5 9.999999999999998
    vertex 38.40960157562811 9.115006667028442 9.999999999999998
  endloop
endfacet
facet normal 0.0 0.0 -1.0
  outer loop
    vertex 39.5670159803874 3.5 9.999999999999998
    vertex 40.37572418084711 9.819177197685683 9.999999999999998
    vertex 44.5670159803874 3.5 9.999999999999998
  endloop
endfacet
facet normal 0.0 0.0 -1.0
  outer loop
    vertex 44.5670159803874 3.5 9.999999999999998
    vertex 40.37572418084711 9.819177197685683 9.999999999999998
    vertex 42.45710552721294 9.990483724121928 9.999999999999998
  endloop
endfacet
facet normal 0.0 0.0 -1.0
  outer loop
    vertex 44.5670159803874 3.5 9.999999999999998
    vertex 42.45710552721294 9.990483724121928 9.999999999999998
    vertex 44.511902915616055 9.617251989657964 9.999999999999998
  endloop
endfacet
facet normal 0.0 0.0 -1.0
  outer loop
    vertex 44.5670159803874 3.5 9.999999999999998
    vertex 44.511902915616055 9.617251989657964 9.999999999999998
    vertex 46.40008529975004 8.724917120202912 9.999999999999998
  endloop
endfacet
facet normal 0.0 0.0 -1.0
  outer loop
    vertex 44.5670159803874 3.5 9.999999999999998
    vertex 46.40008529975004 8.724917120202912 9.999999999999998
    vertex 44.5670159803874 0.5000000000000001 9.999999999999998
  endloop
endfacet
facet normal 0.0 0.0 -1.0
  outer loop
    vertex 44.5670159803874 0.5000000000000001 9.999999999999998
    vertex 46.40008529975004 8.724917120202912 9.999999999999998
    vertex 45.72443038514669 -5.115006667028445 9.999999999999998
  endloop
endfacet
facet normal 0.0 0.0 -1.0
  outer loop
    vertex 45.72443038514669 -5.115006667028445 9.999999999999998
    vertex 46.40008529975004 8.724917120202912 9.999999999999998
    vertex 47.44130624284444 -3.925960190117672 9.999999999999998
  endloop
endfacet
facet normal 0.0 0.0 -1.0
  outer loop
    vertex 47.44130624284444 -3.925960190117672 9.999999999999998
    vertex 46.40008529975004 8.724917120202912 9.999999999999998
    vertex 47.99297617050508 7.374290262457033 9.999999999999998
  endloop
endfacet
facet normal 0.0 0.0 -1.0
  outer loop
    vertex 47.44130624284444 -3.925960190117672 9.999999999999998
    vertex 47.99297617050508 7.374290262457033 9.999999999999998
    vertex 48.79193310059031 -2.333069319362631 9.999999999999998
  endloop
endfacet
facet normal 0.0 0.0 -1.0
  outer loop
    vertex 48.79193310059031 -2.333069319362631 9.999999999999998
    vertex 47.99297617050508 7.374290262457033 9.999999999999998
    vertex 49.18202264741585 5.657414404759295 9.999999999999998
  endloop
endfacet
facet normal 0.0 0.0 -1.0
  outer loop
    vertex 48.79193310059031 -2.333069319362631 9.999999999999998
    vertex 49.18202264741585 5.657414404759295 9.999999999999998
    vertex 49.68426797004537 -0.444886935228649 9.999999999999998
  endloop
endfacet
facet normal 0.0 0.0 -1.0
  outer loop
    vertex 49.68426797004537 -0.444886935228649 9.999999999999998
    vertex 49.18202264741585 5.657414404759295 9.999999999999998
    vertex 49.775628752050565 3.9999999999999996 9.999999999999998
  endloop
endfacet
facet normal 0.0 0.0 -1.0
  outer loop
    vertex 49.68426797004537 -0.444886935228649 9.999999999999998
    vertex 49.775628752050565 3.9999999999999996 9.999999999999998
    vertex 49.765076872866096 0.0 9.999999999999998
  endloop
endfacet
facet normal 0.0 0.0 -1.0
  outer loop
    vertex 34.36895508790872 3.9999999999999996 9.999999999999998
    vertex 34.95200931335896 -1.6574144047592902 9.999999999999998
    vertex 34.35840320872425 2.203098814490545e-17 9.999999999999998
  endloop
endfacet
facet normal 0.0 0.0 -1.0
  outer loop
    vertex 34.95200931335896 -1.6574144047592902 9.999999999999998
    vertex 34.36895508790872 3.9999999999999996 9.999999999999998
    vertex 34.44976399072944 4.444886935228651 9.999999999999998
  endloop
endfacet
facet normal 0.0 0.0 -1.0
  outer loop
    vertex 34.95200931335896 -1.6574144047592902 9.999999999999998
    vertex 34.44976399072944 4.444886935228651 9.999999999999998
    vertex 35.34209886018449 6.333069319362633 9.999999999999998
  endloop
endfacet
facet normal 0.0 0.0 -1.0
  outer loop
    vertex 34.95200931335896 -1.6574144047592902 9.999999999999998
    vertex 35.34209886018449 6.333069319362633 9.999999999999998
    vertex 36.14105579026973 -3.3742902624570332 9.999999999999998
  endloop
endfacet
facet normal 0.0 0.0 -1.0
  outer loop
    vertex 36.14105579026973 -3.3742902624570332 9.999999999999998
    vertex 35.34209886018449 6.333069319362633 9.999999999999998
    vertex 36.69272571793037 7.9259601901176735 9.999999999999998
  endloop
endfacet
facet normal 0.0 0.0 -1.0
  outer loop
    vertex 36.14105579026973 -3.3742902624570332 9.999999999999998
    vertex 36.69272571793037 7.9259601901176735 9.999999999999998
    vertex 37.73394666102477 -4.724917120202911 9.999999999999998
  endloop
endfacet
facet normal 0.0 0.0 -1.0
  outer loop
    vertex 37.73394666102477 -4.724917120202911 9.999999999999998
    vertex 36.69272571793037 7.9259601901176735 9.999999999999998
    vertex 38.40960157562811 9.115006667028442 9.999999999999998
  endloop
endfacet
facet normal 0.0 0.0 -1.0
  outer loop
    vertex 37.73394666102477 -4.724917120202911 9.999999999999998
    vertex 38.40960157562811 9.115006667028442 9.999999999999998
    vertex 39.62212904515875 -5.617251989657965 9.999999999999998
  endloop
endfacet
facet normal 0.0 0.0 -1.0
  outer loop
    vertex 39.62212904515875 -5.617251989657965 9.999999999999998
    vertex 38.40960157562811 9.115006667028442 9.999999999999998
    vertex 39.5670159803874 0.49999999999999994 9.999999999999998
  endloop
endfacet
facet normal 0.0 0.0 -1.0
  outer loop
    vertex 39.5670159803874 0.49999999999999994 9.999999999999998
    vertex 38.40960157562811 9.115006667028442 9.999999999999998
    vertex 39.5670159803874 3.5 9.999999999999998
  endloop
endfacet
facet normal 0.0 0.0 -1.0
  outer loop
    vertex 39.62212904515875 -5.617251989657965 9.999999999999998
    vertex 39.5670159803874 0.49999999999999994 9.999999999999998
    vertex 44.5670159803874 0.5000000000000001 9.999999999999998
  endloop
endfacet
facet normal 0.0 0.0 -1.0
  outer loop
    vertex 39.62212904515875 -5.617251989657965 9.999999999999998
    vertex 44.5670159803874 0.5000000000000001 9.999999999999998
    vertex 41.676926433561874 -5.990483724121928 9.999999999999998
  endloop
endfacet
facet normal 0.0 0.0 -1.0
  outer loop
    vertex 41.676926433561874 -5.990483724121928 9.999999999999998
    vertex 44.5670159803874 0.5000000000000001 9.999999999999998
    vertex 43.75830777992769 -5.819177197685684 9.999999999999998
  endloop
endfacet
facet normal 0.0 0.0 -1.0
  outer loop
    vertex 43.75830777992769 -5.819177197685684 9.999999999999998
    vertex 44.5670159803874 0.5000000000000001 9.999999999999998
    vertex 45.72443038514669 -5.115006667028445 9.999999999999998
  endloop
endfacet
facet normal 0.9414406467862182 0.33717874870570824 0.0
  outer loop
    vertex 34.35840320872425 2.203098814490545e-17 0.0
    vertex 34.95200931335896 -1.6574144047592902 9.999999999999998
    vertex 34.95200931335896 -1.6574144047592902 0.0
  endloop
endfacet
facet normal 0.8893758333785555 0.45717680059491206 0.0
  outer loop
    vertex 34.95200931335896 -1.6574144047592902 9.999999999999998
    vertex 34.35840320872425 2.203098814490545e-17 0.0
    vertex 34.35840320872425 2.203098814490545e-17 9.999999999999998
  endloop
endfacet
facet normal 0.9414406467862182 0.33717874870570824 0.0
  outer loop
    vertex 34.35840320872425 2.203098814490545e-17 9.999999999999998
    vertex 34.35840320872425 2.203098814490545e-17 0.0
    vertex 34.35840320872425 2.203098814490545e-17 3.9999999999999996
  endloop
endfacet
facet normal -0.9999965205758371 0.0026379606175012736 0.0
  outer loop
    vertex 34.36895508790872 3.9999999999999996 9.999999999999998
    vertex 34.35840320872425 2.203098814490545e-17 3.9999999999999996
    vertex 34.35840320872425 2.203098814490545e-17 9.999999999999998
  endloop
endfacet
facet normal -0.9999965205758371 0.0026379606175012736 0.0
  outer loop
    vertex 34.35840320872425 2.203098814490545e-17 3.9999999999999996
    vertex 34.36895508790872 3.9999999999999996 9.999999999999998
    vertex 34.36895508790872 3.9999999999999996 3.9999999999999996
  endloop
endfacet
facet normal 0.9521564987072463 -0.3056108669035803 0.0
  outer loop
    vertex 34.44976399072944 4.444886935228651 0.0
    vertex 34.36895508790872 3.9999999999999996 3.9999999999999996
    vertex 34.36895508790872 3.9999999999999996 0.0
  endloop
endfacet
facet normal 0.9839008906249721 -0.17871496139771453 -0.0
  outer loop
    vertex 34.36895508790872 3.9999999999999996 3.9999999999999996
    vertex 34.44976399072944 4.444886935228651 0.0
    vertex 34.36895508790872 3.9999999999999996 9.999999999999998
  endloop
endfacet
facet normal 0.9839008906249721 -0.17871496139771453 -0.0
  outer loop
    vertex 34.36895508790872 3.9999999999999996 9.999999999999998
    vertex 34.44976399072944 4.444886935228651 0.0
    vertex 34.44976399072944 4.444886935228651 9.999999999999998
  endloop
endfacet
facet normal 0.840614640025364 -0.5416336649203295 0.0
  outer loop
    vertex 35.34209886018449 6.333069319362633 0.0
    vertex 34.44976399072944 4.444886935228651 9.999999999999998
    vertex 34.44976399072944 4.444886935228651 0.0
  endloop
endfacet
facet normal 0.9521564987072463 -0.3056108669035803 0.0
  outer loop
    vertex 34.44976399072944 4.444886935228651 9.999999999999998
    vertex 35.34209886018449 6.333069319362633 0.0
    vertex 35.34209886018449 6.333069319362633 9.999999999999998
  endloop
endfacet
facet normal 0.6717862828071292 -0.7407450237647093 0.0
  outer loop
    vertex 36.69272571793037 7.9259601901176735 0.0
    vertex 35.34209886018449 6.333069319362633 9.999999999999998
    vertex 35.34209886018449 6.333069319362633 0.0
  endloop
endfacet
facet normal 0.840614640025364 -0.5416336649203295 0.0
  outer loop
    vertex 35.34209886018449 6.333069319362633 9.999999999999998
    vertex 36.69272571793037 7.9259601901176735 0.0
    vertex 36.69272571793037 7.9259601901176735 9.999999999999998
  endloop
endfacet
facet normal 0.4571768005949117 -0.8893758333785557 0.0
  outer loop
    vertex 38.40960157562811 9.115006667028442 9.999999999999998
    vertex 36.69272571793037 7.9259601901176735 0.0
    vertex 38.40960157562811 9.115006667028442 0.0
  endloop
endfacet
facet normal 0.6717862828071292 -0.7407450237647093 0.0
  outer loop
    vertex 36.69272571793037 7.9259601901176735 0.0
    vertex 38.40960157562811 9.115006667028442 9.999999999999998
    vertex 36.69272571793037 7.9259601901176735 9.999999999999998
  endloop
endfacet
facet normal 0.21141147494253662 -0.9773971497107105 0.0
  outer loop
    vertex 40.37572418084711 9.819177197685683 9.999999999999998
    vertex 38.40960157562811 9.115006667028442 0.0
    vertex 40.37572418084711 9.819177197685683 0.0
  endloop
endfacet
facet normal 0.4571768005949117 -0.8893758333785557 0.0
  outer loop
    vertex 38.40960157562811 9.115006667028442 0.0
    vertex 40.37572418084711 9.819177197685683 9.999999999999998
    vertex 38.40960157562811 9.115006667028442 9.999999999999998
  endloop
endfacet
facet normal -0.04876119335319186 -0.9988104655152412 0.0
  outer loop
    vertex 42.45710552721294 9.990483724121928 9.999999999999998
    vertex 40.37572418084711 9.819177197685683 0.0
    vertex 42.45710552721294 9.990483724121928 0.0
  endloop
endfacet
facet normal 0.21141147494253662 -0.9773971497107105 0.0
  outer loop
    vertex 40.37572418084711 9.819177197685683 0.0
    vertex 42.45710552721294 9.990483724121928 9.999999999999998
    vertex 40.37572418084711 9.819177197685683 9.999999999999998
  endloop
endfacet
facet normal -0.3056108669035808 -0.9521564987072461 0.0
  outer loop
    vertex 44.511902915616055 9.617251989657964 9.999999999999998
    vertex 42.45710552721294 9.990483724121928 0.0
    vertex 44.511902915616055 9.617251989657964 0.0
  endloop
endfacet
facet normal -0.04876119335319186 -0.9988104655152412 0.0
  outer loop
    vertex 42.45710552721294 9.990483724121928 0.0
    vertex 44.511902915616055 9.617251989657964 9.999999999999998
    vertex 42.45710552721294 9.990483724121928 9.999999999999998
  endloop
endfacet
facet normal -0.5416336649203287 -0.8406146400253645 0.0
  outer loop
    vertex 46.40008529975004 8.724917120202912 9.999999999999998
    vertex 44.511902915616055 9.617251989657964 0.0
    vertex 46.40008529975004 8.724917120202912 0.0
  endloop
endfacet
facet normal -0.3056108669035808 -0.9521564987072461 0.0
  outer loop
    vertex 44.511902915616055 9.617251989657964 0.0
    vertex 46.40008529975004 8.724917120202912 9.999999999999998
    vertex 44.511902915616055 9.617251989657964 9.999999999999998
  endloop
endfacet
facet normal -0.7407450237647095 -0.6717862828071289 0.0
  outer loop
    vertex 47.99297617050508 7.374290262457033 9.999999999999998
    vertex 46.40008529975004 8.724917120202912 0.0
    vertex 47.99297617050508 7.374290262457033 0.0
  endloop
endfacet
facet normal -0.5416336649203287 -0.8406146400253645 0.0
  outer loop
    vertex 46.40008529975004 8.724917120202912 0.0
    vertex 47.99297617050508 7.374290262457033 9.999999999999998
    vertex 46.40008529975004 8.724917120202912 9.999999999999998
  endloop
endfacet
facet normal -0.7407450237647095 -0.6717862828071289 0.0
  outer loop
    vertex 47.99297617050508 7.374290262457033 9.999999999999998
    vertex 49.18202264741585 5.657414404759295 0.0
    vertex 49.18202264741585 5.657414404759295 9.999999999999998
  endloop
endfacet
facet normal -0.8893758333785553 -0.4571768005949121 0.0
  outer loop
    vertex 49.18202264741585 5.657414404759295 0.0
    vertex 47.99297617050508 7.374290262457033 9.999999999999998
    vertex 47.99297617050508 7.374290262457033 0.0
  endloop
endfacet
facet normal -0.8893758333785553 -0.4571768005949121 0.0
  outer loop
    vertex 49.18202264741585 5.657414404759295 9.999999999999998
    vertex 49.775628752050565 3.9999999999999996 0.0
    vertex 49.775628752050565 3.9999999999999996 9.999999999999998
  endloop
endfacet
facet normal -0.9414406467862185 -0.3371787487057073 -0.0
  outer loop
    vertex 49.775628752050565 3.9999999999999996 0.0
    vertex 49.18202264741585 5.657414404759295 9.999999999999998
    vertex 49.18202264741585 5.657414404759295 0.0
  endloop
endfacet
facet normal -0.9999965205758371 0.0026379606175012736 -0.0
  outer loop
    vertex 49.775628752050565 3.9999999999999996 9.999999999999998
    vertex 49.765076872866096 0.0 0.0
    vertex 49.765076872866096 0.0 9.999999999999998
  endloop
endfacet
facet normal -0.9999965205758371 0.0026379606175012736 -0.0
  outer loop
    vertex 49.765076872866096 0.0 0.0
    vertex 49.775628752050565 3.9999999999999996 9.999999999999998
    vertex 49.775628752050565 3.9999999999999996 0.0
  endloop
endfacet
facet normal -0.983900890624972 0.1787149613977155 -0.0
  outer loop
    vertex 49.765076872866096 0.0 9.999999999999998
    vertex 49.68426797004537 -0.444886935228649 0.0
    vertex 49.68426797004537 -0.444886935228649 9.999999999999998
  endloop
endfacet
facet normal -0.952156498707246 0.3056108669035808 0.0
  outer loop
    vertex 49.68426797004537 -0.444886935228649 0.0
    vertex 49.765076872866096 0.0 9.999999999999998
    vertex 49.765076872866096 0.0 0.0
  endloop
endfacet
facet normal -0.952156498707246 0.3056108669035808 0.0
  outer loop
    vertex 49.68426797004537 -0.444886935228649 9.999999999999998
    vertex 48.79193310059031 -2.333069319362631 0.0
    vertex 48.79193310059031 -2.333069319362631 9.999999999999998
  endloop
endfacet
facet normal -0.8406146400253641 0.5416336649203294 0.0
  outer loop
    vertex 48.79193310059031 -2.333069319362631 0.0
    vertex 49.68426797004537 -0.444886935228649 9.999999999999998
    vertex 49.68426797004537 -0.444886935228649 0.0
  endloop
endfacet
facet normal -0.8406146400253641 0.5416336649203294 0.0
  outer loop
    vertex 48.79193310059031 -2.333069319362631 9.999999999999998
    vertex 47.44130624284444 -3.925960190117672 0.0
    vertex 47.44130624284444 -3.925960190117672 9.999999999999998
  endloop
endfacet
facet normal -0.6717862828071293 0.7407450237647092 0.0
  outer loop
    vertex 47.44130624284444 -3.925960190117672 0.0
    vertex 48.79193310059031 -2.333069319362631 9.999999999999998
    vertex 48.598256551913195 -2.5614859279157973 0.0
  endloop
endfacet
facet normal -0.7627256853885016 0.646722141919264 -0.0
  outer loop
    vertex 48.598256551913195 -2.5614859279157973 0.0
    vertex 48.79193310059031 -2.333069319362631 9.999999999999998
    vertex 48.79193310059031 -2.333069319362631 0.0
  endloop
endfacet
facet normal -0.45717680059491134 0.8893758333785559 0.0
  outer loop
    vertex 45.72443038514669 -5.115006667028445 9.999999999999998
    vertex 47.44130624284444 -3.925960190117672 0.0
    vertex 45.72443038514669 -5.115006667028445 0.0
  endloop
endfacet
facet normal -0.6717862828071293 0.7407450237647092 0.0
  outer loop
    vertex 47.44130624284444 -3.925960190117672 0.0
    vertex 45.72443038514669 -5.115006667028445 9.999999999999998
    vertex 47.44130624284444 -3.925960190117672 9.999999999999998
  endloop
endfacet
facet normal -0.21141147494253645 0.9773971497107106 0.0
  outer loop
    vertex 43.75830777992769 -5.819177197685684 9.999999999999998
    vertex 45.72443038514669 -5.115006667028445 0.0
    vertex 43.75830777992769 -5.819177197685684 0.0
  endloop
endfacet
facet normal -0.45717680059491134 0.8893758333785559 0.0
  outer loop
    vertex 45.72443038514669 -5.115006667028445 0.0
    vertex 43.75830777992769 -5.819177197685684 9.999999999999998
    vertex 45.72443038514669 -5.115006667028445 9.999999999999998
  endloop
endfacet
facet normal 0.04876119335319152 0.9988104655152412 0.0
  outer loop
    vertex 41.676926433561874 -5.990483724121928 9.999999999999998
    vertex 43.75830777992769 -5.819177197685684 0.0
    vertex 41.676926433561874 -5.990483724121928 0.0
  endloop
endfacet
facet normal -0.21141147494253645 0.9773971497107106 0.0
  outer loop
    vertex 43.75830777992769 -5.819177197685684 0.0
    vertex 41.676926433561874 -5.990483724121928 9.999999999999998
    vertex 43.75830777992769 -5.819177197685684 9.999999999999998
  endloop
endfacet
facet normal 0.30561086690358186 0.9521564987072457 0.0
  outer loop
    vertex 39.62212904515875 -5.617251989657965 9.999999999999998
    vertex 41.676926433561874 -5.990483724121928 0.0
    vertex 39.62212904515875 -5.617251989657965 0.0
  endloop
endfacet
facet normal 0.04876119335319152 0.9988104655152412 0.0
  outer loop
    vertex 41.676926433561874 -5.990483724121928 0.0
    vertex 39.62212904515875 -5.617251989657965 9.999999999999998
    vertex 41.676926433561874 -5.990483724121928 9.999999999999998
  endloop
endfacet
facet normal 0.5416336649203294 0.840614640025364 0.0
  outer loop
    vertex 37.73394666102477 -4.724917120202911 9.999999999999998
    vertex 39.62212904515875 -5.617251989657965 0.0
    vertex 37.73394666102477 -4.724917120202911 0.0
  endloop
endfacet
facet normal 0.30561086690358186 0.9521564987072457 0.0
  outer loop
    vertex 39.62212904515875 -5.617251989657965 0.0
    vertex 37.73394666102477 -4.724917120202911 9.999999999999998
    vertex 39.62212904515875 -5.617251989657965 9.999999999999998
  endloop
endfacet
facet normal 0.7407450237647096 0.6717862828071288 0.0
  outer loop
    vertex 36.14105579026973 -3.3742902624570332 9.999999999999998
    vertex 37.73394666102477 -4.724917120202911 0.0
    vertex 36.14105579026973 -3.3742902624570332 0.0
  endloop
endfacet
facet normal 0.5416336649203294 0.840614640025364 0.0
  outer loop
    vertex 37.73394666102477 -4.724917120202911 0.0
    vertex 36.14105579026973 -3.3742902624570332 9.999999999999998
    vertex 37.73394666102477 -4.724917120202911 9.999999999999998
  endloop
endfacet
facet normal 0.8893758333785555 0.45717680059491206 0.0
  outer loop
    vertex 34.95200931335896 -1.6574144047592902 0.0
    vertex 36.14105579026973 -3.3742902624570332 9.999999999999998
    vertex 36.14105579026973 -3.3742902624570332 0.0
  endloop
endfacet
facet normal 0.7407450237647096 0.6717862828071288 0.0
  outer loop
    vertex 36.14105579026973 -3.3742902624570332 9.999999999999998
    vertex 34.95200931335896 -1.6574144047592902 0.0
    vertex 34.95200931335896 -1.6574144047592902 9.999999999999998
  endloop
endfacet
facet normal 1.0 -0.0 -0.0
  outer loop
    vertex 44.5670159803874 3.5 0.0
    vertex 44.5670159803874 0.5000000000000001 9.999999999999998
    vertex 44.5670159803874 0.5000000000000001 0.0
  endloop
endfacet
facet normal 1.0 -0.0 -0.0
  outer loop
    vertex 44.5670159803874 0.5000000000000001 9.999999999999998
    vertex 44.5670159803874 3.5 0.0
    vertex 44.5670159803874 3.5 9.999999999999998
  endloop
endfacet
facet normal -0.0 1.0 -0.0
  outer loop
    vertex 39.5670159803874 3.5 9.999999999999998
    vertex 44.5670159803874 3.5 0.0
    vertex 39.5670159803874 3.5 0.0
  endloop
endfacet
facet normal -0.0 1.0 -0.0
  outer loop
    vertex 44.5670159803874 3.5 0.0
    vertex 39.5670159803874 3.5 9.999999999999998
    vertex 44.5670159803874 3.5 9.999999999999998
  endloop
endfacet
facet normal -1.0 0.0 0.0
  outer loop
    vertex 39.5670159803874 3.5 9.999999999999998
    vertex 39.5670159803874 0.49999999999999994 0.0
    vertex 39.5670159803874 0.49999999999999994 9.999999999999998
  endloop
endfacet
facet normal -1.0 0.0 0.0
  outer loop
    vertex 39.5670159803874 0.49999999999999994 0.0
    vertex 39.5670159803874 3.5 9.999999999999998
    vertex 39.5670159803874 3.5 0.0
  endloop
endfacet
facet normal 3.52495810318487e-17 -1.0 0.0
  outer loop
    vertex 44.5670159803874 0.5000000000000001 9.999999999999998
    vertex 39.5670159803874 0.49999999999999994 0.0
    vertex 44.5670159803874 0.5000000000000001 0.0
  endloop
endfacet
facet normal 3.52495810318487e-17 -1.0 0.0
  outer loop
    vertex 39.5670159803874 0.49999999999999994 0.0
    vertex 44.5670159803874 0.5000000000000001 9.999999999999998
    vertex 39.5670159803874 0.49999999999999994 9.999999999999998
  endloop
endfacet
facet normal 6.41211060102798e-19 -1.0 0.0
  outer loop
    vertex 34.35840320872425 2.203098814490545e-17 3.9999999999999996
    vertex 14.358403208724246 9.20676694284949e-18 0.0
    vertex 34.35840320872425 2.203098814490545e-17 0.0
  endloop
endfacet
facet normal 6.41211060102798e-19 -1.0 0.0
  outer loop
    vertex 14.358403208724246 9.20676694284949e-18 0.0
    vertex 34.35840320872425 2.203098814490545e-17 3.9999999999999996
    vertex 14.358403208724246 9.20676694284949e-18 3.9999999999999996
  endloop
endfacet
facet normal 0.5547001962252291 -0.8320502943378437 0.0
  outer loop
    vertex 14.358403208724246 9.20676694284949e-18 3.9999999999999996
    vertex 11.358403208724246 -1.9999999999999998 0.0
    vertex 14.358403208724246 9.20676694284949e-18 0.0
  endloop
endfacet
facet normal 0.5547001962252291 -0.8320502943378437 0.0
  outer loop
    vertex 11.358403208724246 -1.9999999999999998 0.0
    vertex 14.358403208724246 9.20676694284949e-18 3.9999999999999996
    vertex 11.358403208724246 -1.9999999999999998 5.999999999999999
  endloop
endfacet
facet normal 0.5547001962252291 -0.8320502943378437 0.0
  outer loop
    vertex 11.358403208724246 -1.9999999999999998 5.999999999999999
    vertex 14.358403208724246 9.20676694284949e-18 3.9999999999999996
    vertex 14.358403208724246 9.20676694284949e-18 5.999999999999999
  endloop
endfacet
facet normal -0.5547001962252291 -0.8320502943378438 0.0
  outer loop
    vertex 11.358403208724246 -1.9999999999999998 5.999999999999999
    vertex 8.358403208724244 9.20676694284949e-18 0.0
    vertex 11.358403208724246 -1.9999999999999998 0.0
  endloop
endfacet
facet normal -0.5547001962252291 -0.8320502943378438 0.0
  outer loop
    vertex 8.358403208724244 9.20676694284949e-18 0.0
    vertex 11.358403208724246 -1.9999999999999998 5.999999999999999
    vertex 8.358403208724244 9.20676694284949e-18 5.999999999999999
  endloop
endfacet
facet normal 1.101498302120643e-18 -1.0 0.0
  outer loop
    vertex 8.358403208724244 9.20676694284949e-18 5.999999999999999
    vertex 0.0 0.0 0.0
    vertex 8.358403208724244 9.20676694284949e-18 0.0
  endloop
endfacet
facet normal 1.101498302120643e-18 -1.0 0.0
  outer loop
    vertex 0.0 0.0 0.0
    vertex 8.358403208724244 9.20676694284949e-18 5.999999999999999
    vertex 0.0 0.0 5.999999999999999
  endloop
endfacet
facet normal -0.44721359549995787 -0.8944271909999161 -0.0
  outer loop
    vertex 0.0 0.0 5.999999999999999
    vertex -4.000000000000001 1.9999999999999998 0.0
    vertex 0.0 0.0 0.0
  endloop
endfacet
facet normal -0.44721359549995787 -0.8944271909999161 -0.0
  outer loop
    vertex -4.000000000000001 1.9999999999999998 0.0
    vertex 0.0 0.0 5.999999999999999
    vertex -4.000000000000001 1.9999999999999998 5.999999999999999
  endloop
endfacet
facet normal -0.44721359549995787 0.8944271909999161 0.0
  outer loop
    vertex -4.000000000000001 1.9999999999999998 5.999999999999999
    vertex 0.0 3.9999999999999996 0.0
    vertex -4.000000000000001 1.9999999999999998 0.0
  endloop
endfacet
facet normal -0.44721359549995787 0.8944271909999161 0.0
  outer loop
    vertex 0.0 3.9999999999999996 0.0
    vertex -4.000000000000001 1.9999999999999998 5.999999999999999
    vertex 0.0 3.9999999999999996 5.999999999999999
  endloop
endfacet
facet normal -0.0 1.0 -0.0
  outer loop
    vertex 0.0 3.9999999999999996 5.999999999999999
    vertex 34.36895508790872 3.9999999999999996 0.0
    vertex 0.0 3.9999999999999996 0.0
  endloop
endfacet
facet normal -0.0 1.0 -0.0
  outer loop
    vertex 34.36895508790872 3.9999999999999996 0.0
    vertex 0.0 3.9999999999999996 5.999999999999999
    vertex 14.358403208724246 3.9999999999999996 3.9999999999999996
  endloop
endfacet
facet normal -0.0 1.0 -0.0
  outer loop
    vertex 14.358403208724246 3.9999999999999996 3.9999999999999996
    vertex 0.0 3.9999999999999996 5.999999999999999
    vertex 14.358403208724246 3.9999999999999996 5.999999999999999
  endloop
endfacet
facet normal -0.0 1.0 -0.0
  outer loop
    vertex 34.36895508790872 3.9999999999999996 3.9999999999999996
    vertex 34.36895508790872 3.9999999999999996 0.0
    vertex 14.358403208724246 3.9999999999999996 3.9999999999999996
  endloop
endfacet
facet normal -0.0 -0.0 1.0
  outer loop
    vertex 34.35840320872425 2.203098814490545e-17 3.9999999999999996
    vertex 14.358403208724246 3.9999999999999996 3.9999999999999996
    vertex 14.358403208724246 9.20676694284949e-18 3.9999999999999996
  endloop
endfacet
facet normal -0.0 -0.0 1.0
  outer loop
    vertex 14.358403208724246 3.9999999999999996 3.9999999999999996
    vertex 34.35840320872425 2.203098814490545e-17 3.9999999999999996
    vertex 34.36895508790872 3.9999999999999996 3.9999999999999996
  endloop
endfacet
facet normal -0.0 -0.0 1.0
  outer loop
    vertex 0.0 0.0 5.999999999999999
    vertex 0.0 3.9999999999999996 5.999999999999999
    vertex -4.000000000000001 1.9999999999999998 5.999999999999999
  endloop
endfacet
facet normal -0.0 -0.0 1.0
  outer loop
    vertex 0.0 3.9999999999999996 5.999999999999999
    vertex 0.0 0.0 5.999999999999999
    vertex 8.358403208724244 9.20676694284949e-18 5.999999999999999
  endloop
endfacet
facet normal -0.0 -0.0 1.0
  outer loop
    vertex 0.0 3.9999999999999996 5.999999999999999
    vertex 8.358403208724244 9.20676694284949e-18 5.999999999999999
    vertex 14.358403208724246 3.9999999999999996 5.999999999999999
  endloop
endfacet
facet normal -0.0 -0.0 1.0
  outer loop
    vertex 14.358403208724246 3.9999999999999996 5.999999999999999
    vertex 8.358403208724244 9.20676694284949e-18 5.999999999999999
    vertex 11.358403208724246 -1.9999999999999998 5.999999999999999
  endloop
endfacet
facet normal -0.0 -0.0 1.0
  outer loop
    vertex 14.358403208724246 3.9999999999999996 5.999999999999999
    vertex 11.358403208724246 -1.9999999999999998 5.999999999999999
    vertex 14.358403208724246 9.20676694284949e-18 5.999999999999999
  endloop
endfacet
facet normal 1.0 -0.0 0.0
  outer loop
    vertex 14.358403208724246 3.9999999999999996 3.9999999999999996
    vertex 14.358403208724246 9.20676694284949e-18 5.999999999999999
    vertex 14.358403208724246 9.20676694284949e-18 3.9999999999999996
  endloop
endfacet
facet normal 1.0 -0.0 0.0
  outer loop
    vertex 14.358403208724246 9.20676694284949e-18 5.999999999999999
    vertex 14.358403208724246 3.9999999999999996 3.9999999999999996
    vertex 14.358403208724246 3.9999999999999996 5.999999999999999
  endloop
endfacet
facet normal 0.0 0.0 -1.0
  outer loop
    vertex 39.5670159803874 0.49999999999999994 0.0
    vertex 34.95200931335896 -1.6574144047592902 0.0
    vertex 39.5670159803874 3.5 0.0
  endloop
endfacet
facet normal 0.0 0.0 -1.0
  outer loop
    vertex 39.5670159803874 0.49999999999999994 0.0
    vertex 36.14105579026973 -3.3742902624570332 0.0
    vertex 34.95200931335896 -1.6574144047592902 0.0
  endloop
endfacet
facet normal 0.0 0.0 -1.0
  outer loop
    vertex 36.14105579026973 -3.3742902624570332 0.0
    vertex 39.5670159803874 0.49999999999999994 0.0
    vertex 37.73394666102477 -4.724917120202911 0.0
  endloop
endfacet
facet normal 0.0 0.0 -1.0
  outer loop
    vertex 37.73394666102477 -4.724917120202911 0.0
    vertex 39.5670159803874 0.49999999999999994 0.0
    vertex 39.62212904515875 -5.617251989657965 0.0
  endloop
endfacet
facet normal 0.0 0.0 -1.0
  outer loop
    vertex 39.62212904515875 -5.617251989657965 0.0
    vertex 39.5670159803874 0.49999999999999994 0.0
    vertex 44.5670159803874 0.5000000000000001 0.0
  endloop
endfacet
facet normal 0.0 0.0 -1.0
  outer loop
    vertex 39.62212904515875 -5.617251989657965 0.0
    vertex 44.5670159803874 0.5000000000000001 0.0
    vertex 41.676926433561874 -5.990483724121928 0.0
  endloop
endfacet
facet normal 0.0 0.0 -1.0
  outer loop
    vertex 41.676926433561874 -5.990483724121928 0.0
    vertex 44.5670159803874 0.5000000000000001 0.0
    vertex 43.75830777992769 -5.819177197685684 0.0
  endloop
endfacet
facet normal 0.0 0.0 -1.0
  outer loop
    vertex 43.75830777992769 -5.819177197685684 0.0
    vertex 44.5670159803874 0.5000000000000001 0.0
    vertex 45.72443038514669 -5.115006667028445 0.0
  endloop
endfacet
facet normal 0.0 0.0 -1.0
  outer loop
    vertex 45.72443038514669 -5.115006667028445 0.0
    vertex 44.5670159803874 0.5000000000000001 0.0
    vertex 48.598256551913195 -2.5614859279157973 0.0
  endloop
endfacet
facet normal 0.0 0.0 -1.0
  outer loop
    vertex 45.72443038514669 -5.115006667028445 0.0
    vertex 48.598256551913195 -2.5614859279157973 0.0
    vertex 47.44130624284444 -3.925960190117672 0.0
  endloop
endfacet
facet normal 0.0 0.0 -1.0
  outer loop
    vertex 44.5670159803874 3.5 0.0
    vertex 39.5670159803874 0.49999999999999994 0.0
    vertex 39.5670159803874 3.5 0.0
  endloop
endfacet
facet normal 0.0 0.0 -1.0
  outer loop
    vertex 39.5670159803874 0.49999999999999994 0.0
    vertex 44.5670159803874 3.5 0.0
    vertex 44.5670159803874 0.5000000000000001 0.0
  endloop
endfacet
facet normal 0.0 0.0 -1.0
  outer loop
    vertex 34.36895508790872 3.9999999999999996 0.0
    vertex 34.95200931335896 -1.6574144047592902 0.0
    vertex 34.35840320872425 2.203098814490545e-17 0.0
  endloop
endfacet
facet normal 0.0 0.0 -1.0
  outer loop
    vertex 34.95200931335896 -1.6574144047592902 0.0
    vertex 34.36895508790872 3.9999999999999996 0.0
    vertex 34.44976399072944 4.444886935228651 0.0
  endloop
endfacet
facet normal 0.0 0.0 -1.0
  outer loop
    vertex 34.95200931335896 -1.6574144047592902 0.0
    vertex 34.44976399072944 4.444886935228651 0.0
    vertex 35.34209886018449 6.333069319362633 0.0
  endloop
endfacet
facet normal 0.0 0.0 -1.0
  outer loop
    vertex 34.95200931335896 -1.6574144047592902 0.0
    vertex 35.34209886018449 6.333069319362633 0.0
    vertex 39.5670159803874 3.5 0.0
  endloop
endfacet
facet normal 0.0 0.0 -1.0
  outer loop
    vertex 39.5670159803874 3.5 0.0
    vertex 35.34209886018449 6.333069319362633 0.0
    vertex 36.69272571793037 7.9259601901176735 0.0
  endloop
endfacet
facet normal 0.0 0.0 -1.0
  outer loop
    vertex 39.5670159803874 3.5 0.0
    vertex 36.69272571793037 7.9259601901176735 0.0
    vertex 38.40960157562811 9.115006667028442 0.0
  endloop
endfacet
facet normal 0.0 0.0 -1.0
  outer loop
    vertex 39.5670159803874 3.5 0.0
    vertex 38.40960157562811 9.115006667028442 0.0
    vertex 40.37572418084711 9.819177197685683 0.0
  endloop
endfacet
facet normal 0.0 0.0 -1.0
  outer loop
    vertex 39.5670159803874 3.5 0.0
    vertex 40.37572418084711 9.819177197685683 0.0
    vertex 44.5670159803874 3.5 0.0
  endloop
endfacet
facet normal 0.0 0.0 -1.0
  outer loop
    vertex 44.5670159803874 3.5 0.0
    vertex 40.37572418084711 9.819177197685683 0.0
    vertex 42.45710552721294 9.990483724121928 0.0
  endloop
endfacet
facet normal 0.0 0.0 -1.0
  outer loop
    vertex 44.5670159803874 3.5 0.0
    vertex 42.45710552721294 9.990483724121928 0.0
    vertex 44.511902915616055 9.617251989657964 0.0
  endloop
endfacet
facet normal 0.0 0.0 -1.0
  outer loop
    vertex 44.5670159803874 3.5 0.0
    vertex 44.511902915616055 9.617251989657964 0.0
    vertex 46.40008529975004 8.724917120202912 0.0
  endloop
endfacet
facet normal 0.0 0.0 -1.0
  outer loop
    vertex 44.5670159803874 3.5 0.0
    vertex 46.40008529975004 8.724917120202912 0.0
    vertex 47.99297617050508 7.374290262457033 0.0
  endloop
endfacet
facet normal 0.0 0.0 -1.0
  outer loop
    vertex 47.99297617050508 7.374290262457033 0.0
    vertex 44.5670159803874 0.5000000000000001 0.0
    vertex 44.5670159803874 3.5 0.0
  endloop
endfacet
facet normal 0.0 0.0 -1.0
  outer loop
    vertex 44.5670159803874 0.5000000000000001 0.0
    vertex 47.99297617050508 7.374290262457033 0.0
    vertex 48.598256551913195 -2.5614859279157973 0.0
  endloop
endfacet
facet normal 0.0 0.0 -1.0
  outer loop
    vertex 48.598256551913195 -2.5614859279157973 0.0
    vertex 47.99297617050508 7.374290262457033 0.0
    vertex 49.18202264741585 5.657414404759295 0.0
  endloop
endfacet
facet normal 0.0 0.0 -1.0
  outer loop
    vertex 48.598256551913195 -2.5614859279157973 0.0
    vertex 49.18202264741585 5.657414404759295 0.0
    vertex 48.79193310059031 -2.333069319362631 0.0
  endloop
endfacet
facet normal 0.0 0.0 -1.0
  outer loop
    vertex 48.79193310059031 -2.333069319362631 0.0
    vertex 49.18202264741585 5.657414404759295 0.0
    vertex 49.68426797004537 -0.444886935228649 0.0
  endloop
endfacet
facet normal 0.0 0.0 -1.0
  outer loop
    vertex 49.68426797004537 -0.444886935228649 0.0
    vertex 49.18202264741585 5.657414404759295 0.0
    vertex 49.775628752050565 3.9999999999999996 0.0
  endloop
endfacet
facet normal 0.0 0.0 -1.0
  outer loop
    vertex 49.68426797004537 -0.444886935228649 0.0
    vertex 49.775628752050565 3.9999999999999996 0.0
    vertex 49.765076872866096 0.0 0.0
  endloop
endfacet
endsolid StepperPointer
